<?xml version="1.0" encoding="UTF-8"?>
<svg id="Layer_1" xmlns="http://www.w3.org/2000/svg" version="1.1" viewBox="0 0 1522.4 758.9">
  <!-- Generator: Adobe Illustrator 29.7.1, SVG Export Plug-In . SVG Version: 2.1.1 Build 8)  -->
  <defs>
    <style>
      .st0 {
        fill: #e79a63;
      }

      .st1 {
        fill: #00203f;
      }
    </style>
  </defs>
  <g>
    <polygon class="st1" points="43.7 686.7 82.2 725.9 266.7 725.9 266.7 686.7 82.2 686.7 82.2 638.8 264.5 638.8 264.5 610.4 82.2 610.4 82.2 569.1 266.7 569.1 266.7 530.1 43.7 530.1 43.7 686.7"/>
    <polygon class="st1" points="1255.7 686.7 1294.3 725.9 1478.8 725.9 1478.8 686.7 1294.3 686.7 1294.3 638.8 1476.6 638.8 1476.6 610.4 1294.3 610.4 1294.3 569.1 1478.8 569.1 1478.8 530.1 1255.7 530.1 1255.7 686.7"/>
    <polygon class="st1" points="289.6 530.1 289.6 725.9 328.1 725.9 328.1 569.1 476.9 569.1 476.9 725.9 515.4 725.9 515.4 569.1 476.9 530.1 289.6 530.1"/>
    <polygon class="st1" points="535.7 569.1 535.7 686.7 574.2 725.9 751.2 725.9 751.2 686.4 574.2 686.4 574.2 569.1 751.2 569.1 751.2 530.1 574.2 530.1 535.7 569.1"/>
    <path class="st1" d="M961.1,530h-153.7l-36.1,39.1v117.6l36.1,39.2h153.7l36.1-39.2v-117.6l-36.1-39.1ZM961.1,686.7h-153.7v-117.6h153.7v117.6Z"/>
    <path class="st1" d="M1200.6,530h-185.8v195.8h185.8l40-39.2v-117.6l-40-39.1h0ZM1200.6,686.7h-151.8v-117.6h151.8v117.6Z"/>
  </g>
  <g>
    <polygon class="st0" points="1474.2 84.8 1474.2 33 1430.5 33 1430.5 76.7 1430.5 84.8 1430.5 364.4 1474.2 364.4 1474.2 84.8"/>
    <polygon class="st0" points="289.2 397.1 289.2 320.4 289.2 320.4 289.2 264.8 248.2 264.8 78.2 264.7 78.2 308.4 245.6 308.4 245.6 397.1 245.2 397.1 43.7 397.1 43.7 440.8 245.6 440.8 289.2 397.1"/>
    <polygon class="st0" points="1478.8 420.3 1478.8 402.9 1425.9 402.9 1425.9 460.9 1478.8 460.9 1478.8 443.5 1444.7 443.5 1444.7 420.3 1478.8 420.3"/>
    <rect class="st0" x="1331.3" y="33" width="43.6" height="43.6"/>
    <path class="st0" d="M1331.3,120.5v199.5h-84.2v-44.4l-43-43.6h-540v-44.4h383.3v-43.6h-383.3l-43.6,43.6v88h583.6v44.4h-684.3v-101.3h-139.2l-43.6,43.7v101.3h139.1v53.6h-139.1v43.6h139.1l43.7-43.6v-53.6h811.5l43.7-43.7V120.5h-43.7ZM476.1,320h-95.5v-57.4l.2-.2h95.3v57.6h0Z"/>
  </g>
</svg>
