<?xml version="1.0" encoding="UTF-8"?>
<svg id="Layer_1" xmlns="http://www.w3.org/2000/svg" version="1.1" viewBox="0 0 665.1 374.1">
  <!-- Generator: Adobe Illustrator 29.7.1, SVG Export Plug-In . SVG Version: 2.1.1 Build 8)  -->
  <defs>
    <style>
      .st0 {
        fill: #fff;
      }

      .st1 {
        fill: #ad8643;
      }
    </style>
  </defs>
  <g>
    <polygon class="st1" points="316.9 123.3 316.9 169.4 316.9 216.9 316.9 263.1 339.6 273.5 339.6 216.9 339.6 169.4 339.6 112.8 316.9 123.3"/>
    <polygon class="st1" points="270.6 159.3 270.6 251.3 270.6 263.4 293.3 252.9 293.3 251.3 293.3 159.3 293.3 157.6 270.6 147.2 270.6 159.3"/>
    <polygon class="st1" points="179.2 233.1 201.8 243.5 201.8 95.9 224.4 105 224.4 207 224.4 216.9 224.4 300.7 247 311.1 247 216.9 247 207 247 90.8 179.2 63 179.2 233.1"/>
    <polygon class="st1" points="86.2 271.3 108.9 281.7 108.9 156.9 131.4 166.1 131.4 237.7 154.1 248.1 154.1 154 154.1 151.9 86.2 124.1 86.2 271.3"/>
  </g>
  <g>
    <g>
      <path class="st0" d="M415.4,167c1.7,0,3.1.3,4.4.9,1.2.6,2.2,1.5,2.9,2.6.7,1.1,1,2.5,1,4.1s-.2,2.4-.7,3.4c-.5,1-1.1,1.8-1.9,2.5-.8.7-1.8,1.1-2.9,1.5l5.9,11.8h-2.4l-5.6-11.4h-7.5v11.4h-2.1v-26.8h9ZM408.5,180.5h6.5c2,0,3.6-.5,4.8-1.5,1.1-1,1.7-2.4,1.7-4.2s-.6-3.3-1.7-4.3c-1.1-1-2.7-1.6-4.7-1.6h-6.6v11.6Z"/>
      <path class="st0" d="M430.2,193.8h-2.2l9.6-26.8h2.1l9.6,26.8h-2.2l-3-8.8h-10.9l-3,8.8ZM438.7,169.6h-.1l-4.7,13.7h9.6l-4.8-13.7Z"/>
      <path class="st0" d="M454.6,193.8v-26.8h9.1c2.4,0,4.2.6,5.6,1.8,1.4,1.2,2,2.8,2,4.8s-.2,2.2-.7,3c-.4.8-1,1.5-1.7,2-.7.5-1.4.9-2.1,1.1h0c1.1.2,2.1.6,3.1,1.1.9.5,1.6,1.3,2.2,2.2.5.9.8,2.1.8,3.5s-.4,2.8-1.1,3.9c-.7,1.1-1.7,1.9-3.1,2.5-1.3.6-3,.9-4.9.9h-9.2ZM456.8,168.9v10.1h5.8c1.3,0,2.5-.2,3.5-.6,1-.4,1.8-.9,2.3-1.7s.8-1.7.8-2.9-.5-2.8-1.5-3.7c-1-.9-2.4-1.3-4.3-1.3h-6.6ZM456.8,181v10.9h6.3c2.6,0,4.5-.5,5.8-1.4,1.3-.9,1.9-2.2,1.9-4s-.3-2.3-.8-3.1c-.6-.8-1.3-1.4-2.4-1.8-1-.4-2.1-.6-3.4-.6h-7.3Z"/>
      <path class="st0" d="M485.6,193.8h-2l-7.2-26.8h2.4l5.8,23.6h.1l6.4-23.6h2.2l6.4,23.6h.1l5.8-23.6h2.4l-7.2,26.8h-2.1l-6.5-23.3h-.1l-6.5,23.3Z"/>
      <path class="st0" d="M511.9,193.8h-2.2l9.6-26.8h2.1l9.6,26.8h-2.2l-3-8.8h-10.9l-3,8.8ZM520.4,169.6h-.1l-4.7,13.7h9.6l-4.8-13.7Z"/>
      <path class="st0" d="M542.1,193.8h-2.1v-24.9h-8.7v-1.9h19.6v1.9h-8.8v24.9Z"/>
    </g>
    <g>
      <path class="st0" d="M408.6,238.2h-2.2l9.6-26.8h2.1l9.6,26.8h-2.2l-3-8.8h-10.9l-3,8.8ZM417.1,214h-.1l-4.7,13.7h9.6l-4.8-13.7Z"/>
      <path class="st0" d="M448.3,236.3v1.9h-15.2v-26.8h2.1v24.9h13.1Z"/>
      <path class="st0" d="M472.4,227.1c0,2.4-.4,4.5-1.2,6.3-.8,1.8-2,3.1-3.6,4.1-1.5.9-3.4,1.4-5.6,1.4s-4-.5-5.5-1.4c-1.5-.9-2.7-2.3-3.6-4.1-.8-1.8-1.3-3.8-1.3-6.3v-4.5c0-2.4.4-4.5,1.3-6.3.8-1.8,2-3.1,3.6-4.1,1.5-1,3.4-1.4,5.5-1.4s4,.5,5.6,1.4c1.5,1,2.7,2.3,3.6,4.1s1.2,3.8,1.2,6.3v4.5ZM470.3,222.4c0-2-.3-3.8-1-5.2-.7-1.4-1.7-2.6-2.9-3.3-1.2-.8-2.7-1.2-4.4-1.2s-3.1.4-4.3,1.2c-1.2.8-2.2,1.9-2.9,3.3-.7,1.4-1,3.2-1,5.2v4.7c0,2,.3,3.8,1,5.2s1.7,2.6,2.9,3.3c1.2.8,2.7,1.2,4.3,1.2s3.1-.4,4.4-1.2c1.2-.8,2.2-1.9,2.9-3.3.7-1.5,1-3.2,1-5.2v-4.7Z"/>
      <path class="st0" d="M481.4,238.2h-1.9v-26.8h2l9.8,22.4h0l9.8-22.4h2v26.8h-1.9v-22.1h-.1l-8.8,20.1h-2l-8.8-20.1h-.1v22.1Z"/>
      <path class="st0" d="M520.4,211.4c1.7,0,3.1.3,4.4.9,1.2.6,2.2,1.5,2.9,2.6.7,1.1,1,2.5,1,4.1s-.2,2.4-.7,3.4c-.5,1-1.1,1.8-1.9,2.5-.8.7-1.8,1.1-2.9,1.5l5.9,11.8h-2.4l-5.6-11.4h-7.5v11.4h-2.1v-26.8h9ZM513.5,224.9h6.5c2,0,3.6-.5,4.8-1.5,1.1-1,1.7-2.4,1.7-4.2s-.6-3.3-1.7-4.3c-1.1-1-2.7-1.6-4.7-1.6h-6.6v11.6Z"/>
      <path class="st0" d="M535.2,238.2h-2.2l9.6-26.8h2.1l9.6,26.8h-2.2l-3-8.8h-10.9l-3,8.8ZM543.7,214h-.1l-4.7,13.7h9.6l-4.8-13.7Z"/>
      <path class="st0" d="M561.7,238.2h-2.1v-26.8h2.1l14.9,23.1h.1v-23.1h2.1v26.8h-2.1l-14.9-23.1h0v23.1Z"/>
    </g>
  </g>
</svg>