<?xml version="1.0" encoding="UTF-8"?>
<svg id="Layer_1" xmlns="http://www.w3.org/2000/svg" version="1.1" viewBox="0 0 665.1 374.1">
  <!-- Generator: Adobe Illustrator 29.7.1, SVG Export Plug-In . SVG Version: 2.1.1 Build 8)  -->
  <defs>
    <style>
      .st0 {
        fill: #fff;
      }
    </style>
  </defs>
  <path class="st0" d="M306.7,153.6c-1.9,0-3.4-.2-4.7-.5-1.3-.3-2.3-.8-3.1-1.5-.8-.7-1.4-1.6-1.7-2.7-.4-1.1-.5-2.5-.5-4.2v-1h-.3c-.6,1.8-1.5,3.2-2.9,4.1-1.4.9-3,1.4-4.9,1.4-2.7,0-4.9-.7-6.4-2.2-1.5-1.5-2.3-3.5-2.3-6.2s.2-2.2.5-3.2c.4-1,1-2,1.8-2.9.8-1,1.9-1.9,3.2-2.9,1.3-1,2.9-2,4.8-3l6.2-3.5v-3.1h4.3v22c0,1.7.4,2.8,1.3,3.4.9.6,2.2.9,4,.9h2.1v4l-1.2,1.2ZM289.4,143.9c2.5,0,4.3-.4,5.3-1.1,1.1-.7,1.6-2,1.6-3.8v-8.9l-6.2,3.3c-2.2,1.2-3.7,2.3-4.6,3.3-.9,1-1.4,2.1-1.4,3.4s.4,2.2,1.2,2.9c.8.6,2.2.9,4.1.9ZM290.4,117.1c-.8,0-1.5-.2-2-.7-.5-.5-.7-1.2-.7-2.3s.2-1.8.7-2.3c.5-.5,1.1-.7,2-.7h.7c.8,0,1.5.2,2,.7.5.5.7,1.2.7,2.3s-.2,1.8-.7,2.3c-.5.5-1.1.7-2,.7h-.7ZM298.3,117.1c-.8,0-1.5-.2-2-.7-.5-.5-.7-1.2-.7-2.3s.2-1.8.7-2.3c.5-.5,1.1-.7,2-.7h.7c.8,0,1.5.2,2,.7.5.5.7,1.2.7,2.3s-.2,1.8-.7,2.3c-.5.5-1.1.7-2,.7h-.7Z"/>
  <path class="st0" d="M306.7,149.6l1.2-1.2h6.3c2,0,3.5-.4,4.6-1.1,1.1-.7,1.6-1.8,1.6-3.3s-.2-1.6-.5-2.3c-.4-.7-1-1.5-2-2.4l-9.4-9v-10.4l26.4-12.1v5.6l-24.2,11.2v.3l7.2,7c1.3,1.2,2.3,2.3,3.2,3.4.9,1,1.6,2,2.1,2.9.5.9.9,1.9,1.2,2.7.2.9.4,1.9.4,2.9,0,3.1-.9,5.5-2.8,7.2-1.9,1.7-4.4,2.6-7.7,2.6h-7.5v-4Z"/>
  <path class="st0" d="M324.6,163h2.3c2.2,0,4.1-.3,5.5-1,1.4-.7,2.5-1.5,3.4-2.6.8-1.1,1.4-2.3,1.7-3.8.3-1.4.5-3,.5-4.5s0-2.4-.2-3.7c-.1-1.3-.3-2.5-.5-3.7l-1-5.3,18.2-2.4v7.2c0,2.1.5,3.6,1.4,4.5.9.9,2.4,1.4,4.3,1.4s3.3-.4,4.2-1.3c.9-.9,1.4-2.4,1.4-4.6v-4.8h4.3v4.8c0,2.2.3,3.7.9,4.6.6.9,1.7,1.3,3.2,1.3h1.2c2.6,0,3.9-1.3,3.9-3.9s0-1.5,0-2.5c0-1-.2-2.1-.4-3.3l-.5-3.4,4.2-.5.4,3.2c.2,1.3.3,2.5.4,3.6,0,1.1.1,2.1.1,2.9,0,2.8-.8,5-2.3,6.7-1.5,1.6-3.6,2.5-6.4,2.5-4.8,0-7.6-2-8.4-6.1h-.3c-.4,2-1.2,3.5-2.4,4.5-1.2,1.1-2.7,1.6-4.7,1.6-3.1,0-5.3-.9-6.7-2.7-1.4-1.8-2.1-4.6-2.1-8.5v-1.6l-8.9,1.2c.2,1.5.4,3.1.5,4.5s.2,2.8.2,4c0,2.2-.2,4.4-.7,6.4-.5,2.1-1.3,3.9-2.5,5.4-1.2,1.6-2.7,2.8-4.6,3.8-1.9.9-4.4,1.4-7.3,1.4h-2.3v-5.2ZM363.6,131.1c-.8,0-1.5-.2-2-.7-.5-.5-.7-1.2-.7-2.3s.2-1.8.7-2.3c.5-.5,1.1-.7,2-.7h.7c.8,0,1.5.2,2,.7.5.5.7,1.2.7,2.3s-.2,1.8-.7,2.3c-.5.5-1.1.7-2,.7h-.7ZM367.5,123.7c-.8,0-1.4-.2-1.9-.7-.5-.5-.7-1.2-.7-2.2s.2-1.7.7-2.2c.5-.5,1.1-.7,1.9-.7h.7c.8,0,1.4.2,1.9.7.5.5.7,1.2.7,2.2s-.2,1.7-.7,2.2c-.5.5-1.1.7-1.9.7h-.7ZM371.5,131.1c-.8,0-1.5-.2-2-.7-.5-.5-.7-1.2-.7-2.3s.2-1.8.7-2.3c.5-.5,1.1-.7,2-.7h.7c.8,0,1.5.2,2,.7.5.5.7,1.2.7,2.3s-.2,1.8-.7,2.3c-.5.5-1.1.7-2,.7h-.7Z"/>
  <path class="st0" d="M108.3,253.2c-3.3,0-6.2-.4-8.8-1.1-2.6-.8-4.8-1.9-6.6-3.3-1.8-1.4-3.2-3.2-4.1-5.2-.9-2.1-1.4-4.4-1.4-7s.3-3.9.8-6.2c.5-2.3,1.2-4.5,2.1-6.7l5.9,1.7c-.8,1.8-1.5,3.5-1.9,5.3-.5,1.8-.7,3.3-.7,4.6,0,2.6,1.1,4.5,3.2,6,2.2,1.4,5.2,2.1,9,2.1h4.9c4.2,0,7.5-.6,10-1.8,2.5-1.2,3.9-2.9,4.2-5.1l-9.3-1.6c-3.7-.6-6.6-1.8-8.5-3.5-2-1.7-2.9-4.2-2.9-7.3s.4-4.2,1.2-6.3c.8-2.1,1.9-4.1,3.3-5.8,1.4-1.7,3.1-3.2,5-4.3,1.9-1.1,4.1-1.7,6.4-1.7s4.8.7,6.7,2c1.9,1.3,3.5,3.2,4.7,5.5l-6.5,5.8c-.6-1.1-1.5-2-2.6-2.9s-2.5-1.3-4.2-1.3-2,.2-2.9.6c-.9.4-1.8.9-2.5,1.5-.7.6-1.3,1.4-1.8,2.2-.4.8-.7,1.6-.7,2.5s.6,2,1.7,2.6c1.1.6,2.8,1.1,5.2,1.5l7.6,1.3c2.3.4,4,1.3,4.9,2.6,1,1.3,1.5,3.2,1.5,5.8s-.5,5.3-1.6,7.5c-1,2.2-2.5,4-4.5,5.6-2,1.5-4.3,2.7-7.1,3.4-2.8.8-6,1.2-9.6,1.2ZM102.8,266.3c-1.1,0-1.9-.3-2.6-1-.7-.7-1-1.7-1-3.1s.3-2.5,1-3.1c.7-.7,1.5-1,2.6-1h1.2c1.1,0,1.9.3,2.6,1,.7.7,1,1.7,1,3.1s-.3,2.5-1,3.1c-.7.7-1.5,1-2.6,1h-1.2ZM112.5,266.3c-1.1,0-1.9-.3-2.6-1-.7-.7-1-1.7-1-3.1s.3-2.5,1-3.1c.7-.7,1.5-1,2.6-1h1.2c1.1,0,1.9.3,2.6,1,.7.7,1,1.7,1,3.1s-.3,2.5-1,3.1c-.7.7-1.5,1-2.6,1h-1.2Z"/>
  <path class="st0" d="M131.9,244h2.4c3.7,0,6.4-.8,8.1-2.3,1.7-1.5,2.6-4,2.5-7.5,0-.9,0-1.9-.2-3s-.3-2.1-.5-3.3l-1.3-8.1,6.7-1,.9,5.7c.3,2,.6,3.8.8,5.4.2,1.6.3,3,.3,4.1,0,2.9-.4,5.6-1.1,7.9-.7,2.4-1.8,4.4-3.3,6.1-1.5,1.7-3.3,3-5.4,3.9-2.2.9-4.6,1.3-7.4,1.3h-2.5v-9.2Z"/>
  <path class="st0" d="M169.6,238.5c-4.1,0-7.2-1-9.2-2.9-2-2-3-5.1-3-9.5v-32.7h7.3v31.5c0,1.8.4,3,1.1,3.6.7.6,2,.9,3.8.9h1.8v7.3l-1.8,1.8h0Z"/>
  <path class="st0" d="M169.7,231.2l1.8-1.8h6.5v-.3c-1.4-1.5-2.5-3.2-3.1-4.9-.6-1.7-.9-3.4-.9-5s.3-3.5.9-5.2c.6-1.6,1.4-3,2.4-4.2,1.1-1.2,2.3-2.1,3.8-2.8,1.5-.7,3.1-1,4.9-1s3.4.3,4.9,1c1.5.7,2.8,1.6,3.8,2.8,1.1,1.2,1.9,2.6,2.4,4.2.6,1.6.9,3.3.9,5.2s-.3,3.3-.9,5c-.6,1.7-1.7,3.4-3.2,4.9v.3h6.9v7.3l-1.8,1.8h-.6c-2.2,0-4.3-.3-6.4-.9-2.1-.6-4-1.6-5.9-3.1-1.9,1.5-3.8,2.5-5.9,3.1-2.1.6-4.2.9-6.4.9h-4.2v-7.3ZM180.7,201c-1.1,0-1.9-.3-2.6-1-.7-.7-1-1.7-1-3.1s.3-2.5,1-3.1c.7-.7,1.5-1,2.6-1h1.2c1.1,0,1.9.3,2.6,1,.7.7,1,1.7,1,3.1s-.3,2.5-1,3.1c-.7.7-1.5,1-2.6,1h-1.2ZM186.1,228.6c2.1-1.2,3.6-2.4,4.7-3.7,1.1-1.3,1.6-2.7,1.6-4.4s-.6-3.1-1.7-4c-1.1-1-2.5-1.5-4.2-1.5h-.7c-1.7,0-3.1.5-4.2,1.5-1.1,1-1.7,2.3-1.7,4s.5,3.1,1.6,4.4c1.1,1.3,2.6,2.5,4.7,3.7ZM190.3,201c-1.1,0-1.9-.3-2.6-1-.7-.7-1-1.7-1-3.1s.3-2.5,1-3.1c.7-.7,1.5-1,2.6-1h1.2c1.1,0,1.9.3,2.6,1,.7.7,1,1.7,1,3.1s-.3,2.5-1,3.1c-.7.7-1.5,1-2.6,1h-1.2Z"/>
  <path class="st0" d="M199.1,231.2l1.8-1.8h7.9v-.3c.1,0-5.8-7.3-5.8-7.3v-9.5c2-.9,4.2-1.7,6.4-2.2,2.3-.5,4.5-.8,6.6-.8,4.7,0,8.2.8,10.4,2.5,2.2,1.7,3.3,4.3,3.3,7.9s-.1,2.1-.3,2.9c-.2.8-.5,1.6-.9,2.3-.4.7-1,1.4-1.6,2-.7.7-1.5,1.4-2.5,2.1v.2h7.5v7.3l-1.8,1.8h-.6c-2.2,0-4.5-.3-6.8-.8-2.3-.5-4.4-1.4-6.3-2.5-1.9,1.2-3.8,2-5.9,2.5-2.1.5-4.2.8-6.4.8h-4.9v-7.3ZM208.9,219.7l7.9,9.3,3.7-3.1c.6-.5,1.1-.9,1.5-1.2.4-.3.7-.6,1-.9s.4-.6.5-.9.2-.7.2-1.1c0-1.2-.6-2-1.7-2.5-1.1-.5-3.1-.7-5.9-.7s-2.5,0-3.8.2c-1.3.2-2.4.3-3.4.5v.4Z"/>
  <path class="st0" d="M230.1,231.2l1.8-1.8h2.7c1.5,0,2.6-.3,3.1-.9.5-.6.8-1.5.8-2.8v-32.4h7.3v32.4c0,4.4-.8,7.6-2.5,9.6-1.7,2.1-4.6,3.1-8.6,3.2h-4.5v-7.3Z"/>
  <path class="st0" d="M253.1,193.3h7.3v45.2h-7.3v-45.2Z"/>
  <path class="st0" d="M274.8,244h2.4c3.7,0,6.4-.8,8.1-2.3,1.7-1.5,2.6-4,2.5-7.5,0-.9,0-1.9-.2-3s-.3-2.1-.5-3.3l-1.3-8.1,6.7-1,.9,5.7c.2.9.3,1.8.4,2.6.1.8.2,1.6.3,2.3h5.6v7.3l-1.8,1.8h-3.8c-.7,4.5-2.5,8.1-5.3,10.7-2.9,2.6-6.7,3.9-11.6,3.9h-2.5v-9.2Z"/>
  <path class="st0" d="M298,231.2l1.8-1.8h1.8c1.5,0,2.7,0,3.6-.2,1-.1,1.7-.3,2.3-.6.6-.3,1-.7,1.2-1.2.2-.5.3-1,.3-1.7s0-1.4-.2-2.4c-.1-1-.3-2.2-.6-3.8l-1-5.7,6.7-1.1.9,5.7c.2,1.1.4,2.3.5,3.7s.2,2.5.2,3.5c0,4.4-1.1,7.7-3.3,9.8-2.2,2.1-5.7,3.1-10.7,3.1h-3.6v-7.3ZM304,251.6c-1.1,0-1.9-.3-2.6-1-.7-.7-1-1.7-1-3.1s.3-2.5,1-3.1c.7-.7,1.5-1,2.6-1h1.2c1.1,0,1.9.3,2.6,1,.7.7,1,1.7,1,3.1s-.3,2.5-1,3.1c-.7.7-1.5,1-2.6,1h-1.2ZM313.6,251.6c-1.1,0-1.9-.3-2.6-1-.7-.7-1-1.7-1-3.1s.3-2.5,1-3.1c.7-.7,1.5-1,2.6-1h1.2c1.1,0,1.9.3,2.6,1,.7.7,1,1.7,1,3.1s-.3,2.5-1,3.1c-.7.7-1.5,1-2.6,1h-1.2Z"/>
  <path class="st0" d="M321.7,244h3.9c3.9,0,7-.5,9.3-1.5,2.3-1,4-2.3,5-4h-7.1c-3.3,0-5.9-1-7.7-2.9-1.9-1.9-2.8-4.6-2.8-8.1s.3-4.1.9-5.9c.6-1.8,1.5-3.4,2.6-4.7,1.1-1.3,2.4-2.4,4-3.1,1.5-.8,3.2-1.1,5-1.1,3.7,0,6.6,1.5,8.8,4.4,2.2,2.9,3.3,7,3.5,12.3h3.1v7.3l-1.8,1.8h-2.1c-1.1,4.7-3.4,8.3-6.7,10.8-3.4,2.5-7.8,3.8-13.4,3.8h-4.5v-9.2ZM328.4,226.3c0,1.1.4,1.9,1.3,2.4.9.5,2.1.7,3.7.7h7.6v-.2c0-2.2-.7-4-2-5.3-1.3-1.3-3-2-5-2s-2.9.4-4,1.3c-1.1.8-1.6,1.9-1.6,3.2Z"/>
  <path class="st0" d="M393.1,238.5c-1.4,0-2.8-.2-4.1-.5-1.3-.3-2.5-1-3.6-1.9-2.6,1.6-6.3,2.4-11.1,2.4h-25.8v-7.3l1.8-1.8h2.7l1.5-2.6v-33.4h7.3v15.6l-.7,7.1.5.2c2.1-2.2,4.3-3.7,6.7-4.7,2.4-1,5-1.4,7.8-1.4,4.8,0,8.4,1.3,10.8,3.9,2.4,2.6,3.6,6.3,3.6,11s-.1,2.9-.4,4c1,.1,2,.2,3,.2h1.8v7.3l-1.8,1.8ZM374.3,229.4c2,0,3.6,0,4.9-.2,1.3-.1,2.3-.4,3.1-.7.8-.3,1.4-.8,1.7-1.4.3-.6.5-1.4.5-2.4,0-1.7-.6-3.1-1.7-3.9-1.1-.9-3-1.3-5.7-1.3h-1.8c-1.8,0-3.4,0-4.8.2-1.4.1-2.6.4-3.7.8-1.1.4-2,1-2.9,1.7s-1.7,1.7-2.4,2.9l-2.6,4,.2.4h15.3Z"/>
  <path class="st0" d="M393.1,231.2l1.8-1.8h1.8c3.3,0,4.9-1.4,4.9-4.3v-8.7h6.7v8.7c0,2.8,1.4,4.3,4.3,4.3h2.4v7.3l-1.8,1.8c-3.3,0-5.7-.7-7.4-2-1.7-1.3-2.8-3.4-3.4-6.3h-.4c-.6,2.8-1.5,4.9-2.9,6.3-1.4,1.3-3.4,2-6,2v-7.3ZM399.5,211.5c-1.1,0-1.9-.3-2.6-1-.7-.7-1-1.7-1-3.1s.3-2.5,1-3.1c.7-.7,1.5-1,2.6-1h1.2c1.1,0,1.9.3,2.6,1,.7.7,1,1.7,1,3.1s-.3,2.5-1,3.1c-.7.7-1.5,1-2.6,1h-1.2ZM409.2,211.5c-1.1,0-1.9-.3-2.6-1-.7-.7-1-1.7-1-3.1s.3-2.5,1-3.1c.7-.7,1.5-1,2.6-1h1.2c1.1,0,1.9.3,2.6,1,.7.7,1,1.7,1,3.1s-.3,2.5-1,3.1c-.7.7-1.5,1-2.6,1h-1.2Z"/>
  <path class="st0" d="M413.2,231.2l1.8-1.8h1.5c3.3,0,4.9-1.4,4.9-4.3v-31.7h7.3v31.7c0,2.8,1.4,4.3,4.3,4.3h2.1v7.3l-1.8,1.8c-3.3,0-5.9-.7-7.6-2-1.8-1.3-2.9-3.4-3.5-6.3h-.4c-.5,2.8-1.5,4.9-2.8,6.3-1.3,1.3-3.3,2-5.9,2v-7.3Z"/>
  <path class="st0" d="M433.4,231.2l1.8-1.8h2.7c1.5,0,2.6-.3,3.1-.9.5-.6.8-1.5.8-2.8v-32.4h7.3v32.4c0,4.4-.8,7.6-2.5,9.6-1.7,2.1-4.6,3.1-8.6,3.2h-4.5v-7.3Z"/>
  <path class="st0" d="M482.9,238.5c-4.1,0-7.2-1-9.2-2.9-2-2-3-5.1-3-9.5v-32.7h7.3v31.5c0,1.8.4,3,1.1,3.6.7.6,2,.9,3.8.9h1.8v7.3l-1.8,1.8h0Z"/>
  <path class="st0" d="M483,231.2l1.8-1.8h0c2,0,3.4-.2,4.4-.7,1-.5,1.7-1.3,2.3-2.5l2.4-4.9,6,2.9-2.1,4.5c1,.4,2,.8,3,1.1,1,.3,2.1.5,3.1.5,1.7,0,3-.4,3.8-1.1.8-.8,1.2-2.1,1.2-4v-3.8h6.7v3.8c0,1.7.3,3,.9,3.7.6.8,1.4,1.2,2.4,1.2h.6c.9,0,1.5-.3,2.1-.9.5-.6.8-1.6.8-3s0-1.3-.2-2.2c-.1-.9-.3-1.9-.5-3.2l-.5-3.1,6.7-1.1.5,3.1c.2,1.2.3,2.3.4,3.3,0,1,.1,2.1.1,3.1,0,4.6-.8,7.9-2.3,10-1.6,2.1-4,3.2-7.3,3.2s-5.1-.7-6.5-2.1-2.5-3.5-3-6.4h-.4c-.3,2.9-1,5.1-2.2,6.4-1.1,1.4-2.6,2-4.4,2s-2.3-.2-3.5-.6c-1.2-.4-2.7-1.2-4.5-2.3l-1.3-.7c-1.3,1.2-2.7,2-4.3,2.4-1.6.4-3.6.5-6.1.5v-7.3Z"/>
  <path class="st0" d="M546.5,238.5c-4.1,0-7.2-1-9.2-2.9-2-2-3-5.1-3-9.5v-32.7h7.3v31.5c0,1.8.4,3,1.1,3.6.7.6,2,.9,3.8.9h1.8v7.3l-1.8,1.8h0Z"/>
  <path class="st0" d="M555.5,235.1c-.9,1.3-2.1,2.1-3.5,2.7-1.4.5-3.2.8-5.5.8v-7.3l1.8-1.8c1.5,0,2.6-.2,3.3-.7.7-.4,1.3-1.2,1.7-2.4l1.7-4.2c.5-1.3,1.1-2.5,1.8-3.7.7-1.1,1.4-2.1,2.3-3s1.9-1.5,3-2,2.4-.7,3.9-.7c3.8,0,6.7,1.5,8.6,4.5,1.9,3,2.9,7.2,2.9,12.5v1.8l-5.8,8.6-16.3-5ZM558.9,226.6l12.3,3.7v-.6c0-2.4-.6-4.4-1.8-5.7-1.2-1.4-2.8-2.1-4.8-2.1s-2.4.3-3.4,1c-1,.7-1.7,1.8-2.2,3.3v.4Z"/>
</svg>