<?xml version="1.0" encoding="UTF-8"?>
<svg id="Layer_1" xmlns="http://www.w3.org/2000/svg" version="1.1" viewBox="0 0 665.1 374.1">
  <!-- Generator: Adobe Illustrator 29.7.1, SVG Export Plug-In . SVG Version: 2.1.1 Build 8)  -->
  <defs>
    <style>
      .st0 {
        fill: #fff;
      }
    </style>
  </defs>
  <path class="st0" d="M306.4,160.2c-1.9,0-3.4-.2-4.7-.5-1.3-.3-2.3-.8-3.1-1.5-.8-.7-1.4-1.6-1.7-2.7-.4-1.1-.5-2.5-.5-4.2v-1h-.3c-.6,1.8-1.5,3.2-2.9,4.1-1.4.9-3,1.4-4.9,1.4-2.7,0-4.9-.7-6.4-2.2-1.5-1.5-2.3-3.5-2.3-6.2s.2-2.2.5-3.2c.4-1,1-2,1.8-2.9.8-1,1.9-1.9,3.2-2.9,1.3-1,2.9-2,4.8-3l6.2-3.5v-3.1h4.3v22c0,1.7.4,2.8,1.3,3.4.9.6,2.2.9,4,.9h2.1v4l-1.2,1.2ZM289.1,150.5c2.5,0,4.3-.4,5.3-1.1,1.1-.7,1.6-2,1.6-3.8v-8.9l-6.2,3.3c-2.2,1.2-3.7,2.3-4.6,3.3-.9,1-1.4,2.1-1.4,3.4s.4,2.2,1.2,2.9c.8.6,2.2.9,4.1.9ZM290.1,123.6c-.8,0-1.5-.2-2-.7-.5-.5-.7-1.2-.7-2.3s.2-1.8.7-2.3c.5-.5,1.1-.7,2-.7h.7c.8,0,1.5.2,2,.7.5.5.7,1.2.7,2.3s-.2,1.8-.7,2.3c-.5.5-1.1.7-2,.7h-.7ZM297.9,123.6c-.8,0-1.5-.2-2-.7-.5-.5-.7-1.2-.7-2.3s.2-1.8.7-2.3c.5-.5,1.1-.7,2-.7h.7c.8,0,1.5.2,2,.7.5.5.7,1.2.7,2.3s-.2,1.8-.7,2.3c-.5.5-1.1.7-2,.7h-.7Z"/>
  <path class="st0" d="M306.4,156.2l1.2-1.2h6.3c2,0,3.5-.4,4.6-1.1,1.1-.7,1.6-1.8,1.6-3.3s-.2-1.6-.5-2.3c-.4-.7-1-1.5-2-2.4l-9.4-9v-10.4l26.4-12.1v5.6l-24.2,11.2v.3l7.2,7c1.3,1.2,2.3,2.3,3.2,3.4.9,1,1.6,2,2.1,2.9.5.9.9,1.9,1.2,2.7.2.9.4,1.9.4,2.9,0,3.1-.9,5.5-2.8,7.2-1.9,1.7-4.4,2.6-7.7,2.6h-7.5v-4Z"/>
  <path class="st0" d="M324.3,169.6h2.3c2.2,0,4.1-.3,5.5-1,1.4-.7,2.5-1.5,3.4-2.6.8-1.1,1.4-2.3,1.7-3.8.3-1.4.5-3,.5-4.5s0-2.4-.2-3.7c-.1-1.3-.3-2.5-.5-3.7l-1-5.3,18.2-2.4v7.2c0,2.1.5,3.6,1.4,4.5.9.9,2.4,1.4,4.3,1.4s3.3-.4,4.2-1.3c.9-.9,1.4-2.4,1.4-4.6v-4.8h4.3v4.8c0,2.2.3,3.7.9,4.6.6.9,1.7,1.3,3.2,1.3h1.2c2.6,0,3.9-1.3,3.9-3.9s0-1.5,0-2.5c0-1-.2-2.1-.4-3.3l-.5-3.4,4.2-.5.4,3.2c.2,1.3.3,2.5.4,3.6,0,1.1.1,2.1.1,2.9,0,2.8-.8,5-2.3,6.7-1.5,1.6-3.6,2.5-6.4,2.5-4.8,0-7.6-2-8.4-6.1h-.3c-.4,2-1.2,3.5-2.4,4.5-1.2,1.1-2.7,1.6-4.7,1.6-3.1,0-5.3-.9-6.7-2.7-1.4-1.8-2.1-4.6-2.1-8.5v-1.6l-8.9,1.2c.2,1.5.4,3.1.5,4.5s.2,2.8.2,4c0,2.2-.2,4.4-.7,6.4-.5,2.1-1.3,3.9-2.5,5.4-1.2,1.6-2.7,2.8-4.6,3.8-1.9.9-4.4,1.4-7.3,1.4h-2.3v-5.2ZM363.3,137.7c-.8,0-1.5-.2-2-.7-.5-.5-.7-1.2-.7-2.3s.2-1.8.7-2.3c.5-.5,1.1-.7,2-.7h.7c.8,0,1.5.2,2,.7.5.5.7,1.2.7,2.3s-.2,1.8-.7,2.3c-.5.5-1.1.7-2,.7h-.7ZM367.2,130.3c-.8,0-1.4-.2-1.9-.7-.5-.5-.7-1.2-.7-2.2s.2-1.7.7-2.2c.5-.5,1.1-.7,1.9-.7h.7c.8,0,1.4.2,1.9.7.5.5.7,1.2.7,2.2s-.2,1.7-.7,2.2c-.5.5-1.1.7-1.9.7h-.7ZM371.2,137.7c-.8,0-1.5-.2-2-.7-.5-.5-.7-1.2-.7-2.3s.2-1.8.7-2.3c.5-.5,1.1-.7,2-.7h.7c.8,0,1.5.2,2,.7.5.5.7,1.2.7,2.3s-.2,1.8-.7,2.3c-.5.5-1.1.7-2,.7h-.7Z"/>
  <path class="st0" d="M148.2,245.1c-3.7,0-6.4-.9-8.1-2.7-1.7-1.8-2.6-4.2-2.6-7.3v-.3h-.4c-.3,1.4-.7,2.6-1.1,3.6-.4,1-1,1.8-1.6,2.4-.7.6-1.4,1-2.3,1.3-.9.3-2,.4-3.2.4-2.9,0-5.1-.8-6.6-2.4-1.5-1.6-2.2-3.8-2.2-6.6s.9-6.1,2.8-8.1c1.9-2.1,4.3-3.9,7.5-5.5l6.8-3.4v-3.4h7.3v19.6c0,1.2.3,2.1.8,2.6.5.5,1.5.7,2.8.7h1.8v7.3l-1.8,1.8ZM130.9,233.2c2.4,0,4-.2,4.9-.7.9-.4,1.4-1.3,1.4-2.4v-7.3l-4.5,2.1c-1.1.5-2,1-2.8,1.4-.8.4-1.5.8-2,1.3-.5.4-1,.9-1.2,1.3-.3.4-.4,1-.4,1.5,0,1,.3,1.7,1,2.2.7.4,1.9.6,3.7.6ZM130.7,208.1c-1.1,0-1.9-.3-2.6-1-.7-.7-1-1.7-1-3.1s.3-2.5,1-3.1c.7-.7,1.5-1,2.6-1h1.2c1.1,0,1.9.3,2.6,1,.7.7,1,1.7,1,3.1s-.3,2.5-1,3.1c-.7.7-1.5,1-2.6,1h-1.2ZM140.3,208.1c-1.1,0-1.9-.3-2.6-1-.7-.7-1-1.7-1-3.1s.3-2.5,1-3.1c.7-.7,1.5-1,2.6-1h1.2c1.1,0,1.9.3,2.6,1,.7.7,1,1.7,1,3.1s-.3,2.5-1,3.1c-.7.7-1.5,1-2.6,1h-1.2Z"/>
  <path class="st0" d="M204.6,245.1c-1.4,0-2.8-.2-4.1-.5-1.3-.3-2.5-1-3.6-1.9-2.6,1.6-6.3,2.4-11.1,2.4h-17.5c-3.3,0-5.7-.7-7.4-2-1.7-1.3-2.8-3.4-3.4-6.3h-.4c-.6,2.8-1.5,4.9-2.9,6.3-1.4,1.3-3.4,2-6,2v-7.3l1.8-1.8h1.8c3.3,0,4.9-1.4,4.9-4.3v-3.8h6.7v3.8c0,1.8.5,3,1.5,3.6l2.7-4.6c1.4-2.5,2.9-4.6,4.4-6.3,1.5-1.7,3-3.2,4.7-4.3,1.6-1.1,3.3-1.9,5.2-2.4,1.8-.5,3.8-.8,5.8-.8,4.8,0,8.4,1.3,10.8,3.9,2.4,2.6,3.6,6.3,3.6,11s-.1,2.9-.4,4c1,.1,2,.2,3,.2h1.8v7.3l-1.8,1.8ZM185.8,235.9c2,0,3.6,0,4.9-.2,1.3-.1,2.3-.4,3.1-.7.8-.3,1.4-.8,1.7-1.4.3-.6.5-1.4.5-2.4,0-1.7-.6-3.1-1.7-3.9-1.1-.9-3-1.3-5.7-1.3h-1.8c-1.8,0-3.4,0-4.8.2-1.4.1-2.6.4-3.7.8-1.1.4-2,1-2.9,1.7s-1.7,1.7-2.4,2.9l-2.6,4,.2.4h15.3ZM185.2,211.9c-1.1,0-1.9-.3-2.6-1-.7-.7-1-1.7-1-3.1s.3-2.5,1-3.1c.7-.7,1.5-1,2.6-1h1.2c1.1,0,1.9.3,2.6,1,.7.7,1,1.7,1,3.1s-.3,2.5-1,3.1c-.7.7-1.5,1-2.6,1h-1.2Z"/>
  <path class="st0" d="M204.6,237.8l1.8-1.8h1.8c1.5,0,2.7,0,3.6-.2,1-.1,1.7-.3,2.3-.6.6-.3,1-.7,1.2-1.2.2-.5.3-1,.3-1.7s0-1.4-.2-2.4c-.1-1-.3-2.2-.6-3.8l-1-5.7,6.7-1.1.9,5.7c.2,1.1.4,2.3.5,3.7s.2,2.5.2,3.5c0,4.4-1.1,7.7-3.3,9.8-2.2,2.1-5.7,3.1-10.7,3.1h-3.6v-7.3ZM215.3,258.2c-1.1,0-1.9-.3-2.6-1-.7-.7-1-1.7-1-3.1s.3-2.5,1-3.1c.7-.7,1.5-1,2.6-1h1.2c1.1,0,1.9.3,2.6,1,.7.7,1,1.7,1,3.1s-.3,2.5-1,3.1c-.7.7-1.5,1-2.6,1h-1.2Z"/>
  <path class="st0" d="M239.8,245.1c-4.1,0-7.2-1-9.2-2.9-2-2-3-5.1-3-9.5v-32.7h7.3v31.5c0,1.8.4,3,1.1,3.6.7.6,2,.9,3.8.9h1.8v7.3l-1.8,1.8h0Z"/>
  <path class="st0" d="M239.9,237.8l1.8-1.8h6.5v-.3c-1.4-1.5-2.5-3.2-3.1-4.9-.6-1.7-.9-3.4-.9-5s.3-3.5.9-5.2c.6-1.6,1.4-3,2.4-4.2,1.1-1.2,2.3-2.1,3.8-2.8,1.5-.7,3.1-1,4.9-1s3.4.3,4.9,1c1.5.7,2.8,1.6,3.8,2.8,1.1,1.2,1.9,2.6,2.4,4.2.6,1.6.9,3.3.9,5.2s-.3,3.3-.9,5c-.6,1.7-1.7,3.4-3.2,4.9v.3h6.9v7.3l-1.8,1.8h-.6c-2.2,0-4.3-.3-6.4-.9-2.1-.6-4-1.6-5.9-3.1-1.9,1.5-3.8,2.5-5.9,3.1-2.1.6-4.2.9-6.4.9h-4.2v-7.3ZM250.9,207.5c-1.1,0-1.9-.3-2.6-1-.7-.7-1-1.7-1-3.1s.3-2.5,1-3.1c.7-.7,1.5-1,2.6-1h1.2c1.1,0,1.9.3,2.6,1,.7.7,1,1.7,1,3.1s-.3,2.5-1,3.1c-.7.7-1.5,1-2.6,1h-1.2ZM256.3,235.1c2.1-1.2,3.6-2.4,4.7-3.7,1.1-1.3,1.6-2.7,1.6-4.4s-.6-3.1-1.7-4c-1.1-1-2.5-1.5-4.2-1.5h-.7c-1.7,0-3.1.5-4.2,1.5-1.1,1-1.7,2.3-1.7,4s.5,3.1,1.6,4.4c1.1,1.3,2.6,2.5,4.7,3.7ZM260.5,207.5c-1.1,0-1.9-.3-2.6-1-.7-.7-1-1.7-1-3.1s.3-2.5,1-3.1c.7-.7,1.5-1,2.6-1h1.2c1.1,0,1.9.3,2.6,1,.7.7,1,1.7,1,3.1s-.3,2.5-1,3.1c-.7.7-1.5,1-2.6,1h-1.2Z"/>
  <path class="st0" d="M269.3,237.8l1.8-1.8h2.7c1.5,0,2.6-.3,3.1-.9.5-.6.8-1.5.8-2.8v-32.4h7.3v32.4c0,4.4-.8,7.6-2.5,9.6-1.7,2.1-4.6,3.1-8.6,3.2h-4.5v-7.3Z"/>
  <path class="st0" d="M292.3,199.9h7.3v45.2h-7.3v-45.2Z"/>
  <path class="st0" d="M340.7,259.7c-3.3,0-6.2-.4-8.8-1.1-2.6-.8-4.8-1.9-6.6-3.3-1.8-1.4-3.2-3.2-4.1-5.2-.9-2.1-1.4-4.4-1.4-7s.3-3.9.8-6.2c.5-2.3,1.2-4.5,2.1-6.7l5.9,1.7c-.8,1.8-1.5,3.5-1.9,5.3-.5,1.8-.7,3.3-.7,4.6,0,2.6,1.1,4.5,3.2,6,2.2,1.4,5.2,2.1,9,2.1h4.9c4.1,0,7.4-.5,9.9-1.4,2.5-.9,3.9-2.2,4.2-3.8l-15.1-2.6v-8.7h3.6c2.7,0,4.5-.3,5.5-.9,1-.6,1.4-1.7,1.4-3.3v-29.3h7.3v29.3c0,1.4-.3,2.7-.9,3.8-.6,1.1-1.7,2-3.1,2.8v.4l1.2.3c2,.5,3.5,1.4,4.6,2.6,1.1,1.2,1.7,2.8,1.7,4.8s-.5,4.8-1.6,6.7c-1,2-2.5,3.6-4.5,5-2,1.3-4.3,2.4-7.1,3.1-2.8.7-6,1.1-9.6,1.1Z"/>
  <path class="st0" d="M367.1,250.6h3.9c5.3,0,9.2-.9,11.7-2.8,2.5-1.9,3.7-4.2,3.7-7.2v-1.6h-.4c-.6,2.1-1.6,3.6-3,4.6-1.4,1-3.1,1.5-5.2,1.5-3.3,0-5.9-1-7.7-2.9-1.9-1.9-2.8-4.6-2.8-8.1s.3-4.1.9-5.9c.6-1.8,1.5-3.4,2.6-4.7,1.1-1.3,2.4-2.4,4-3.1,1.5-.8,3.2-1.1,5-1.1s3.8.4,5.3,1.3c1.6.8,2.9,2,4,3.6,1.1,1.6,1.9,3.5,2.5,5.8.6,2.3.9,4.8.9,7.7,0,7-1.8,12.4-5.3,16.3-3.6,3.9-8.8,5.9-15.7,5.9h-4.5v-9.2ZM379.9,235.9c1.6,0,2.9,0,4-.2,1.1-.1,1.9-.4,2.6-.7-.2-2-.9-3.6-2.3-4.8-1.3-1.2-3-1.8-4.9-1.8s-2.9.4-4,1.3c-1.1.8-1.6,1.9-1.6,3.2s.4,1.9,1.3,2.4c.9.5,2.1.7,3.7.7h1.3Z"/>
  <path class="st0" d="M397.2,235.9l10.5-9.5-14.2-13.3,5.3-5.7,14.6,13.8c.7-.8,1.2-1.6,1.5-2.5.3-.9.5-2.1.5-3.6v-15.1h7.3v15.1c0,1.1,0,2-.3,2.9-.2.9-.5,1.8-.9,2.6-.4.8-.9,1.6-1.6,2.4-.7.8-1.4,1.5-2.3,2.4l2.1,2c.9.8,1.6,1.6,2.2,2.3s1.1,1.5,1.5,2.2.6,1.5.8,2.3c.2.8.2,1.6.2,2.5s-.2,2.3-.6,3.4c-.4,1-1,1.9-1.8,2.7-.8.8-1.6,1.4-2.7,1.8-1,.4-2.1.6-3.4.6h-19v-9.2ZM396.4,200h2.6v-.3c-.8-.9-1.2-2-1.2-3.2s.6-3.1,1.9-4.2c1.2-1.1,2.8-1.7,4.8-1.7s2.3.2,3.4.7,2.1,1.2,2.9,2l-2.9,4.1c-1-1-2.1-1.5-3.4-1.5s-1.3.2-1.7.5c-.4.3-.6.7-.6,1.2,0,1.3,1.4,2,4.2,2h4.5v5.4h-14.5v-4.9ZM411.8,230.2l-6.5,5.4v.2h12.6l-6.1-5.7Z"/>
  <path class="st0" d="M430.4,199.9h7.3v45.2h-7.3v-45.2Z"/>
  <path class="st0" d="M452.1,250.6h3.1c3.4,0,5.9-.8,7.6-2.3,1.7-1.5,2.5-4,2.5-7.5s0-1.9-.2-3-.3-2.1-.5-3.3l-1-6.7,22.6-2.4v6.3c0,1,.1,1.7.4,2.3.3.5.6,1,1.1,1.3l2.7-4.6c1.4-2.5,2.9-4.6,4.4-6.3,1.5-1.7,3-3.2,4.7-4.3,1.6-1.1,3.3-1.9,5.2-2.4,1.8-.5,3.8-.8,5.8-.8,4.8,0,8.4,1.3,10.8,3.9,2.4,2.6,3.6,6.3,3.6,11s-.1,2.9-.4,4c1,.1,2,.2,3,.2h1.8v7.3l-1.8,1.8c-1.4,0-2.8-.2-4.1-.5-1.3-.3-2.5-1-3.6-1.9-2.6,1.6-6.3,2.4-11.1,2.4h-18.7c-3.3,0-5.8-.9-7.5-2.5-1.7-1.6-2.7-4.1-2.9-7.5l-7.9.8c0,.9.2,1.8.2,2.6,0,.8,0,1.5,0,2.1,0,2.9-.4,5.6-1.1,7.9-.7,2.4-1.8,4.4-3.2,6.1-1.4,1.7-3.2,3-5.2,3.9-2.1.9-4.4,1.3-7.1,1.3h-3.1v-9.2ZM493,235.6l.2.4h15.3c2,0,3.6,0,4.9-.2,1.3-.1,2.3-.4,3.1-.7.8-.3,1.4-.8,1.7-1.4.3-.6.5-1.4.5-2.4,0-1.7-.6-3.1-1.7-3.9-1.1-.9-3-1.3-5.7-1.3h-1.8c-1.8,0-3.4,0-4.8.2-1.4.1-2.6.4-3.7.8-1.1.4-2,1-2.9,1.7s-1.7,1.7-2.4,2.9l-2.6,4Z"/>
  <path class="st0" d="M527.3,237.8l1.8-1.8h1.8c1.5,0,2.7,0,3.6-.2,1-.1,1.7-.3,2.3-.6.6-.3,1-.7,1.2-1.2.2-.5.3-1,.3-1.7s0-1.4-.2-2.4c-.1-1-.3-2.2-.6-3.8l-1-5.7,6.7-1.1.9,5.7c.2,1.1.4,2.3.5,3.7s.2,2.5.2,3.5c0,4.4-1.1,7.7-3.3,9.8-2.2,2.1-5.7,3.1-10.7,3.1h-3.6v-7.3ZM538.4,214.4c-1.1,0-1.9-.3-2.6-1-.7-.7-1-1.7-1-3.1s.3-2.5,1-3.1c.7-.7,1.5-1,2.6-1h1.2c1.1,0,1.9.3,2.6,1,.7.7,1,1.7,1,3.1s-.3,2.5-1,3.1c-.7.7-1.5,1-2.6,1h-1.2Z"/>
</svg>