<?xml version="1.0" encoding="UTF-8"?>
<svg id="Layer_1" xmlns="http://www.w3.org/2000/svg" version="1.1" viewBox="0 0 665.1 374.1">
  <!-- Generator: Adobe Illustrator 29.7.1, SVG Export Plug-In . SVG Version: 2.1.1 Build 8)  -->
  <defs>
    <style>
      .st0 {
        fill: #010c1a;
      }
    </style>
  </defs>
  <g id="kUKR8G">
    <g>
      <path class="st0" d="M90.6,265.8c2.3,4.7-6.2,4.6-8,2.5l-12.6-26.2-1.5-6.6c5,.2,11.1-.8,12.8-6.3,1.3-4.3.6-10-3.7-12.3-.5-.3-3.4-1.4-3.8-1.4h-17v51.8c-.6,3.2-7.8,3-8.3.3v-58.8c.5-.9,1.3-1.2,2.2-1.3,5.3-.6,16.6-.4,22.1,0,12.8.9,19.5,10.8,16.6,23.1-1.2,5.3-5.5,9.5-10.6,11.1l11.8,24Z"/>
      <path class="st0" d="M127.3,175.1c-1.1-.6-3.4-2.9-3.4-4.1v-5h9v9.5c0,1.2-4.6.2-5.5-.3Z"/>
      <path class="st0" d="M143.9,175.1c-1.1-.6-3.4-2.9-3.4-4.1v-5h9v9.5c0,1.2-4.6.2-5.5-.3Z"/>
      <path class="st0" d="M154.7,266c.2.8.3,2.5-.3,3-.7.7-7,1-7.4-.9l-16.3-46.2c-.8.5-1.1,1.7-1.4,2.6-5.7,14.5-10,29.5-15.8,44-1.3,1.6-8.8,1.8-7.6-1.9,7.1-18.3,12.6-37.6,19.9-55.8.5-1.1.8-2.7,2.1-3.1,1.4-.4,5.6-.6,6.3,1l20.4,57.3Z"/>
      <path class="st0" d="M206.9,249.7c2,22.2-26.1,25-40.3,15.2-3.3-2.3-4.5-3.4-1.3-6.9.7-.8,1.7-2,2.9-1.9.7,0,6.4,3.8,8,4.4,7.9,3.3,23,2.9,22.8-8.7-.2-9.7-11.1-9-17.9-10.3-23.1-4.7-20-32.8,1.3-34.8,5.3-.5,17.4,1.3,21.1,5.6,1.4,1.6-.4,4.6-1.7,5.9-2.2,2.1-4.2-.4-6.3-1.3-7.5-3.3-21.2-4.3-21.9,6.8-.7,10.2,11,9.7,17.9,11.3,8,1.9,14.7,5.8,15.5,14.8Z"/>
      <path class="st0" d="M257.3,261.6c.5,1,1,7.2,0,7.2h-34.6v-60.5h35.1v5.7c0,.4-1.2,2.2-1.5,2.2h-25.6v17.7s.5.5.5.5h16.5c1.6,0,2,8.3-.7,8.3h-16.4v17.9h25.3c.2,0,1.2.8,1.4,1Z"/>
      <path class="st0" d="M275.7,208.3h35.1v6c0,.2-1.4,1.9-1.5,1.9h-25.3v18.2h16.7c1.6,0,1.6,6.2.7,7.3-.2.2-1.3,1-1.4,1h-16v17.9h25c.6,0,1.9,1.7,1.9,2.2v5.5s-.5.5-.5.5h-34.6v-60.5Z"/>
      <path class="st0" d="M345.2,125.9c-.5,5.5.6,11.9,0,17.2-.3,2.3-1.3,3.6-3.6,3.9-3.3.4-9,.2-11.6-2.1-.4-.4-1.6-1.7-1.6-2.2v-22.5c-11.5.5-7.1,14.8-7.9,22.5-.2,1.8-.7,3.7-2.7,4.2-3.4.8-9.7.6-12.4-1.8-.5-.4-1.7-2.2-1.7-2.7v-19.8c-11.3.4-7.1,13.3-8,20.8-.2,1.6-.7,3.4-2.6,3.6h-146c-2.1-.1-5-1.3-6.2-3.1-.1-.2-.9-2.1-.9-2.2v-26c-3.2-.1-6.9,2.6-7.5,5.8-1,5.2.4,14.1,0,19.9-.3,4-.7,5.7-5,6-5.3.4-15.1.5-20.3,0-2.9-.3-4.6-.9-5.5-3.8-1.1-3.7,0-9.1-.2-13.2-.7-13.1-6.9-22.3-21.2-21.5-14.2.8-17.5,12-18.1,24.2-.1,2.3.8,4.5-.4,6.5-1.7,2.9-7.5,4.4-10.1,7.1-.9.9-3.3,4.8-3.3,6v22.9c10.5-.6,6.9-11.7,7.6-18.7.6-6.1,5.6-5.3,9.1-8.8,6.8,9.6,22.3,10.1,30.9,2.8,2.3,2.5,5.6,3.8,9,4.1,8.2.7,17.5-.5,25.8,0,3.2-.4,4.5-2.3,6.9-4.1,1.1,2,3.2,3,5.3,3.6,50.3,1.1,100.8.4,151.2.3,2.6-.5,4.9-1.8,6.4-4,2.3,1.9,4.1,3.3,7,4,5.6,1.2,14.3,1,18.1-4,3.7,5.6,17.9,5.8,22.6,2.2,2.5-1.9,4.8-6.9,4.8-10v-25.3c-4.8.4-7.5,3.3-7.9,8.1ZM89.7,145.5c-3.4,3.1-10.8,3.2-14.5.5-6.1-4.5-5.8-19.8-1.8-25.6,3.2-4.6,12-5,16-1.3,5.2,5,5.9,21.5.4,26.4Z"/>
      <path class="st0" d="M376.6,210.2v57.1c0,3.3-8.3,2.8-8.3.7v-39.7c-.5.2-.9,1.3-1.1,1.8-4.5,9.8-8.7,19.6-13.3,29.4-1.3,2.3-6.2,2.1-7.4-.3l-12.3-27.3-1.8-3.2v39c-.6,2.7-7.7,2.7-8.3,0l.2-58.6c.9-2,7.1-2.1,8.2,0,6.1,12.3,10.9,25.7,17.1,38,.1.2.7,1.5,1,1.2l17.3-39.3c1.3-2,8.7-2.2,8.6,1.3Z"/>
      <path class="st0" d="M378.3,113.3v49c0,6.2-6.6,13.2-12.9,13.2h-6v-7.9h6c.2,0,2.1-.9,2.4-1.1,2.1-1.4,2.8-4.2,3-6.7,1.1-13.1-.9-27.6,0-40.9,1.1-3.3,4-5.6,7.5-5.8Z"/>
      <path class="st0" d="M616.5,281.5c-13.7-.5-27.9.7-41.5,0-14.8-.7-27.7-6.9-37-18.4l-67.8-84.6c18.8-1.7,40.3,4.6,55.9-8.8,24.3-20.7,11.6-59.6-19.6-62.6h-61.4s0,159.1,0,159.1c0,0,.5.5.5.5h67.1c1.3,0,5.4,1.2,6.9,1.7,7.1,2.4,12.6,7,17.4,12.7h-106.4V92.3h75.2c48.9,3.1,65.9,68.5,23,93.9-9,5.3-18.6,7.1-29,6.8l47,57.6c5.9,6.9,13.8,12.2,22.6,14.5,10.4,2.8,21.9,1.2,32.6,1.6V107.1h-36.3c-7.9,0-20.1-7.6-24.8-13.8-.3-.3-.7-.4-.5-1h75.9l.2,189.2Z"/>
      <path class="st0" d="M616.5,281.5c-13.7-.5-27.9.7-41.5,0-14.8-.7-27.7-6.9-37-18.4l-67.8-84.6c18.8-1.7,40.3,4.6,55.9-8.8,24.3-20.7,11.6-59.6-19.6-62.6h-61.4s0,159.1,0,159.1c0,0,.5.5.5.5h67.1c1.3,0,5.4,1.2,6.9,1.7,7.1,2.4,12.6,7,17.4,12.7h-106.4V92.3h75.2c48.9,3.1,65.9,68.5,23,93.9-9,5.3-18.6,7.1-29,6.8l47,57.6c5.9,6.9,13.8,12.2,22.6,14.5,10.4,2.8,21.9,1.2,32.6,1.6V107.1h-36.3c-7.9,0-20.1-7.6-24.8-13.8-.3-.3-.7-.4-.5-1h75.9l.2,189.2Z"/>
      <path class="st0" d="M345.2,125.9c-.5,5.5.6,11.9,0,17.2-.3,2.3-1.3,3.6-3.6,3.9-3.3.4-9,.2-11.6-2.1-.4-.4-1.6-1.7-1.6-2.2v-22.5c-11.5.5-7.1,14.8-7.9,22.5-.2,1.8-.7,3.7-2.7,4.2-3.4.8-9.7.6-12.4-1.8-.5-.4-1.7-2.2-1.7-2.7v-19.8c-11.3.4-7.1,13.3-8,20.8-.2,1.6-.7,3.4-2.6,3.6h-146c-2.1-.1-5-1.3-6.2-3.1-.1-.2-.9-2.1-.9-2.2v-26c-3.2-.1-6.9,2.6-7.5,5.8-1,5.2.4,14.1,0,19.9-.3,4-.7,5.7-5,6-5.3.4-15.1.5-20.3,0-2.9-.3-4.6-.9-5.5-3.8-1.1-3.7,0-9.1-.2-13.2-.7-13.1-6.9-22.3-21.2-21.5-14.2.8-17.5,12-18.1,24.2-.1,2.3.8,4.5-.4,6.5-1.7,2.9-7.5,4.4-10.1,7.1-.9.9-3.3,4.8-3.3,6v22.9c10.5-.6,6.9-11.7,7.6-18.7.6-6.1,5.6-5.3,9.1-8.8,6.8,9.6,22.3,10.1,30.9,2.8,2.3,2.5,5.6,3.8,9,4.1,8.2.7,17.5-.5,25.8,0,3.2-.4,4.5-2.3,6.9-4.1,1.1,2,3.2,3,5.3,3.6,50.3,1.1,100.8.4,151.2.3,2.6-.5,4.9-1.8,6.4-4,2.3,1.9,4.1,3.3,7,4,5.6,1.2,14.3,1,18.1-4,3.7,5.6,17.9,5.8,22.6,2.2,2.5-1.9,4.8-6.9,4.8-10v-25.3c-4.8.4-7.5,3.3-7.9,8.1ZM89.7,145.5c-3.4,3.1-10.8,3.2-14.5.5-6.1-4.5-5.8-19.8-1.8-25.6,3.2-4.6,12-5,16-1.3,5.2,5,5.9,21.5.4,26.4Z"/>
      <path class="st0" d="M376.6,210.2v57.1c0,3.3-8.3,2.8-8.3.7v-39.7c-.5.2-.9,1.3-1.1,1.8-4.5,9.8-8.7,19.6-13.3,29.4-1.3,2.3-6.2,2.1-7.4-.3l-12.3-27.3-1.8-3.2v39c-.6,2.7-7.7,2.7-8.3,0l.2-58.6c.9-2,7.1-2.1,8.2,0,6.1,12.3,10.9,25.7,17.1,38,.1.2.7,1.5,1,1.2l17.3-39.3c1.3-2,8.7-2.2,8.6,1.3Z"/>
      <path class="st0" d="M82.6,268.3l-12.6-26.2-1.5-6.6c5,.2,11.1-.8,12.8-6.3,1.3-4.3.6-10-3.7-12.3-.5-.3-3.4-1.4-3.8-1.4h-17v51.8c-.6,3.2-7.8,3-8.3.3v-58.8c.5-.9,1.3-1.2,2.2-1.3,5.3-.6,16.6-.4,22.1,0,12.8.9,19.5,10.8,16.6,23.1-1.2,5.3-5.5,9.5-10.6,11.1l11.8,24c2.3,4.7-6.2,4.6-8,2.5Z"/>
      <path class="st0" d="M166.5,264.9c-3.3-2.3-4.5-3.4-1.3-6.9.7-.8,1.7-2,2.9-1.9.7,0,6.4,3.8,8,4.4,7.9,3.3,23,2.9,22.8-8.7-.2-9.7-11.1-9-17.9-10.3-23.1-4.7-20-32.8,1.3-34.8,5.3-.5,17.4,1.3,21.1,5.6,1.4,1.6-.4,4.6-1.7,5.9-2.2,2.1-4.2-.4-6.3-1.3-7.5-3.3-21.2-4.3-21.9,6.8-.7,10.2,11,9.7,17.9,11.3,8,1.9,14.7,5.8,15.5,14.8,2,22.2-26.1,25-40.3,15.2Z"/>
      <path class="st0" d="M284,216.2v18.2h16.7c1.6,0,1.6,6.2.7,7.3-.2.2-1.3,1-1.4,1h-16v17.9h25c.6,0,1.9,1.7,1.9,2.2v5.5s-.5.5-.5.5h-34.6v-60.5h35.1v6c0,.2-1.4,1.9-1.5,1.9h-25.3Z"/>
      <path class="st0" d="M257.3,268.8h-34.6v-60.5h35.1v5.7c0,.4-1.2,2.2-1.5,2.2h-25.6v17.7s.5.5.5.5h16.5c1.6,0,2,8.3-.7,8.3h-16.4v17.9h25.3c.2,0,1.2.8,1.4,1,.5,1,1,7.2,0,7.2Z"/>
      <path class="st0" d="M154.5,269.1c-.7.7-7,1-7.4-.9l-16.3-46.2c-.8.5-1.1,1.7-1.4,2.6-5.7,14.5-10,29.5-15.8,44-1.3,1.6-8.8,1.8-7.6-1.9,7.1-18.3,12.6-37.6,19.9-55.8.5-1.1.8-2.7,2.1-3.1,1.4-.4,5.6-.6,6.3,1l20.4,57.3c.2.8.3,2.5-.3,3Z"/>
      <path class="st0" d="M378.3,113.3v49c0,6.2-6.6,13.2-12.9,13.2h-6v-7.9h6c.2,0,2.1-.9,2.4-1.1,2.1-1.4,2.8-4.2,3-6.7,1.1-13.1-.9-27.6,0-40.9,1.1-3.3,4-5.6,7.5-5.8Z"/>
      <path class="st0" d="M132.9,166v9.5c0,1.2-4.6.2-5.5-.3-1.1-.6-3.4-2.9-3.4-4.1v-5h9Z"/>
      <path class="st0" d="M149.4,166v9.5c0,1.2-4.6.2-5.5-.3-1.1-.6-3.4-2.9-3.4-4.1v-5h9Z"/>
    </g>
  </g>
</svg>