<?xml version="1.0" encoding="UTF-8"?>
<svg id="Layer_1" xmlns="http://www.w3.org/2000/svg" version="1.1" viewBox="0 0 665.1 374.1">
  <!-- Generator: Adobe Illustrator 29.7.1, SVG Export Plug-In . SVG Version: 2.1.1 Build 8)  -->
  <defs>
    <style>
      .st0 {
        fill: #c5b09a;
      }

      .st1 {
        fill: #434345;
      }
    </style>
  </defs>
  <g>
    <polygon class="st1" points="470.1 137.2 470.1 179.6 487 189.4 487 256.8 523.7 256.8 523.7 168.2 470.1 137.2"/>
    <polygon class="st0" points="641.3 137.1 587.5 168.2 587.5 256.8 624.2 256.8 624.2 189.4 641.3 179.5 641.3 137.1"/>
    <polygon class="st1" points="537.3 139.2 537.3 279.6 574 258.4 574 160.4 614.6 136.9 614.6 94.5 537.3 139.2"/>
  </g>
  <g>
    <g>
      <path class="st1" d="M31.5,143.3c.5.2,1.2.4,2.2.4s1.8-.4,2.7-1.3c.9-.9,1.3-1.9,1.3-3.1s-.1-1.2-.4-1.7c-.2-.5-.6-1-1-1.4-.4-.4-.9-.7-1.4-1-.5-.2-1.3-.3-2.2-.3s-1.8.4-2.7,1.3c-.9.9-1.3,1.9-1.3,3.2s.4,2.3,1.3,3.1c.4.4.9.7,1.4,1Z"/>
      <path class="st1" d="M42.5,143.4c.5.2,1.3.4,2.2.4s1.8-.4,2.7-1.3c.9-.9,1.3-1.9,1.3-3.1s-.1-1.2-.4-1.7c-.2-.5-.6-1-1-1.4-.4-.4-.9-.7-1.4-.9-.5-.2-1.3-.3-2.2-.3s-1.8.4-2.7,1.3c-.9.9-1.3,1.9-1.3,3.1s.4,2.2,1.3,3.1c.4.4.9.7,1.4,1Z"/>
      <path class="st1" d="M95.7,181.5v-27.3h-9v19.4h-10.9s0,0,0,0,0,0,0,0h-20.2s0,0,0,0,0,0,0,0h-3.3c-1,0-1.6-.2-1.9-.6-.3-.4-.4-1.1-.4-2.2v-20.5h-11.7c-3.8,0-7,1-9.7,3.1-3.2,2.5-4.7,6.1-4.7,11s.7,5.2,2.2,7c1.4,1.9,3.3,3.2,5.5,4,1,.3,1.9.6,2.9.8,1,.1,2,.2,3.1.2s2.5-.2,4.3-.6c1.1,3.7,4.4,5.5,9.8,5.5h4s0,0,0,0,0,0,0,0h20.2s0,0,0,0,0,0,0,0h19.8ZM41,168.2c-.9.3-2.1.5-3.6.5-3.3,0-4.9-1.7-4.9-5.1s.4-2.8,1.3-3.9c.9-1,2.1-1.5,3.8-1.5h3.5v10Z"/>
      <path class="st1" d="M95.8,188.3c-.4-.4-.9-.7-1.4-.9-.5-.2-1.3-.3-2.2-.3s-1.8.4-2.7,1.3c-.9.9-1.3,1.9-1.3,3.1s.4,2.2,1.3,3.1c.4.4.9.7,1.4.9.5.2,1.3.4,2.2.4s1.8-.4,2.7-1.3c.9-.9,1.3-1.9,1.3-3.1s-.1-1.2-.4-1.7c-.2-.5-.6-1-1-1.4Z"/>
      <path class="st1" d="M84.8,188.3c-.4-.4-.9-.7-1.4-.9-.5-.2-1.3-.3-2.2-.3s-1.8.4-2.7,1.3c-.9.9-1.3,1.9-1.3,3.1s.4,2.3,1.3,3.1c.4.4.9.7,1.4.9.5.2,1.3.4,2.2.4s1.8-.4,2.7-1.3c.9-.9,1.3-1.9,1.3-3.1s-.1-1.2-.4-1.7c-.2-.5-.6-1-1-1.4Z"/>
      <path class="st1" d="M108.8,179.1c0,3.5-.5,5.8-1.4,6.9-.9,1.1-2.5,1.7-4.9,1.7h-1.9v8.1h2.1c5.2,0,9.1-1.3,11.4-3.9,2.4-2.6,3.6-6.9,3.6-12.9v-24.9h-9v24.9Z"/>
      <path class="st1" d="M161.4,146.7c.5.2,1.3.4,2.2.4s1.8-.4,2.7-1.3c.9-.9,1.3-1.9,1.3-3.1s-.1-1.2-.4-1.7c-.2-.5-.6-1-1-1.4-.4-.4-.9-.7-1.4-.9s-1.3-.3-2.2-.3-1.8.4-2.7,1.3c-.9.9-1.3,1.9-1.3,3.1s.4,2.2,1.3,3.1c.4.4.9.7,1.4,1Z"/>
      <path class="st1" d="M150.4,146.7c.5.2,1.2.4,2.2.4s1.8-.4,2.7-1.3c.9-.9,1.3-1.9,1.3-3.1s-.1-1.2-.4-1.7c-.2-.5-.6-1-1-1.4s-.9-.7-1.4-.9c-.5-.2-1.3-.3-2.2-.3s-1.8.4-2.7,1.3c-.9.9-1.3,1.9-1.3,3.1s.4,2.2,1.3,3.1c.4.4.9.7,1.4,1Z"/>
      <path class="st1" d="M219.8,173.6h-17.5c2-1.5,3.8-3.8,5.2-6.6.8-1.6,1.2-3.3,1.2-4.9,0-2.6-1.1-4.9-3.2-6.8s-5.2-2.8-9.2-2.8-9.1,1.7-12.1,5c-.3.3-.8,1-1.5,2.1-.7,1.1-1.2,2.7-1.7,4.7l6.9,8.9c-1.7.3-3.7.5-6.1.5h-5.9s0,0,0,0c0,0,0,0,0,0h-4.4v-6.1c0-2.4-.4-4.7-1.1-6.8-1.9-5.4-6-8.1-12.1-8.1s-7.6,1.4-10.1,4.3c-2.5,2.9-3.8,6.5-3.8,11s.3,4.3,1,5.7h-7.2c-1.2,0-2-.2-2.5-.7s-.7-1.5-.7-3v-34.9h-9v36.1c0,2,.3,3.6.8,5,1.4,3.6,4.7,5.4,9.8,5.4h39.4s0,0,0,0c0,0,0,0,0,0h6.2c3.5,0,7.6-.8,12.1-2.5,2.3,1.7,5,2.5,8.1,2.5h26.4v-46.5h-9v38.6ZM162.5,173.6h-3.9c-1.7,0-3-.6-4-1.8-1-1.2-1.5-2.8-1.5-4.8,0-4.1,1.6-6.2,4.9-6.2s3,.8,3.9,2.5c.4.8.7,2.3.7,4.5v5.9ZM199.5,165.2c-.7,2.4-2,4.2-3.8,5.3-1.1-1-2.7-3.1-5-6.3-.5-.8-1-1.4-1.5-2,1.9-1.3,4.2-1.9,6.7-1.9s3.8,1.1,3.8,3.2,0,1-.3,1.7Z"/>
      <rect class="st1" x="236.9" y="135" width="9" height="46.5"/>
      <path class="st1" d="M301.5,188c-.4-.4-.9-.8-1.4-1-.5-.2-1.3-.3-2.2-.3s-1.8.5-2.7,1.4c-.9.9-1.3,2-1.3,3.2,0,1.3.4,2.3,1.3,3.2.4.4.9.7,1.4,1,.5.2,1.3.4,2.2.4s1.8-.5,2.7-1.4c.9-.9,1.3-2,1.3-3.2s-.1-1.2-.4-1.8c-.2-.6-.6-1-1-1.5Z"/>
      <path class="st1" d="M316,173.6h-29.6c-3.1,0-5.2-.3-6.2-.9s-1.6-1.7-1.6-3.4v-10h-9v11.3c0,4,1,6.8,3.1,8.4,2.1,1.6,5.8,2.4,11.1,2.4h41.1v-27.3h-9v19.4Z"/>
      <path class="st1" d="M391.2,153c-3.4,0-6.8.6-10.1,1.7v7.7c3-.9,5.7-1.3,8.2-1.3,4.1,0,7,1.1,8.8,3.2,1.8,2.2,2.8,5.2,3.1,9.3h-55.9c-1.2,0-2-.2-2.5-.7-.5-.5-.7-1.5-.7-3v-34.9h-9v36.1c0,2,.3,3.6.8,5,1.4,3.6,4.7,5.4,9.8,5.4h66.5v-6.3c0-6.4-1.4-11.6-4.3-15.4-3.3-4.5-8.2-6.7-14.7-6.7Z"/>
      <path class="st1" d="M422.5,154.2v24.9c0,3.5-.5,5.8-1.4,6.9-.9,1.1-2.5,1.7-4.9,1.7h-1.9v8.1h2.1c5.2,0,9.1-1.3,11.4-3.9,2.4-2.6,3.6-6.9,3.6-12.9v-24.9h-9Z"/>
    </g>
    <g>
      <path class="st1" d="M47.6,220.6c0-6.3-4.6-10.1-12.1-10.1h-11.7v28.4h5.3v-8.3h6.4c.4,0,.7,0,1.1,0l5.8,8.3h5.7l-6.5-9.3c3.9-1.5,6-4.7,6-9ZM35.2,226.3h-6.2v-11.3h6.2c4.6,0,7,2.1,7,5.6s-2.4,5.7-7,5.7Z"/>
      <rect class="st1" x="53.4" y="210.5" width="5.3" height="28.4"/>
      <polygon class="st1" points="86.4 222.2 71.7 222.2 71.7 210.5 66.4 210.5 66.4 238.9 71.7 238.9 71.7 226.7 86.4 226.7 86.4 238.9 91.6 238.9 91.6 210.5 86.4 210.5 86.4 222.2"/>
      <path class="st1" d="M108,210.5l-12.8,28.4h5.4l2.8-6.6h14.2l2.8,6.6h5.5l-12.8-28.4h-5.2ZM105.3,228.2l5.3-12.4,5.4,12.4h-10.7Z"/>
      <path class="st1" d="M149.8,224.1c2.2-1.2,3.7-3.3,3.7-6.3,0-4.5-3.7-7.4-10.5-7.4h-13.3v28.4h14.1c7.3,0,11.1-2.8,11.1-7.7s-2.1-6.1-5.1-7.1ZM134.9,214.6h7.5c3.7,0,5.7,1.3,5.7,3.9s-2.1,3.9-5.7,3.9h-7.5v-7.8ZM143.5,234.7h-8.5v-8.2h8.5c4,0,6.1,1.3,6.1,4.1s-2.2,4.1-6.1,4.1Z"/>
      <path class="st1" d="M195.5,220.6c0-6.3-4.6-10.1-12.1-10.1h-11.7v28.4h5.3v-8.3h6.4c.4,0,.7,0,1.1,0l5.8,8.3h5.7l-6.5-9.3c3.9-1.5,6-4.7,6-9ZM183.2,226.3h-6.2v-11.3h6.2c4.6,0,7,2.1,7,5.6s-2.4,5.7-7,5.7Z"/>
      <polygon class="st1" points="206.7 226.6 220.4 226.6 220.4 222.3 206.7 222.3 206.7 214.9 222.2 214.9 222.2 210.5 201.4 210.5 201.4 238.9 222.7 238.9 222.7 234.5 206.7 234.5 206.7 226.6"/>
      <path class="st1" d="M237.4,210.5l-12.8,28.4h5.4l2.8-6.6h14.2l2.8,6.6h5.5l-12.8-28.4h-5.2ZM234.6,228.2l5.3-12.4,5.4,12.4h-10.7Z"/>
      <polygon class="st1" points="264.3 210.5 259 210.5 259 238.9 279.2 238.9 279.2 234.4 264.3 234.4 264.3 210.5"/>
      <polygon class="st1" points="288.6 226.6 302.3 226.6 302.3 222.3 288.6 222.3 288.6 214.9 304.1 214.9 304.1 210.5 283.3 210.5 283.3 238.9 304.6 238.9 304.6 234.5 288.6 234.5 288.6 226.6"/>
      <path class="st1" d="M314,218.3c0-2.2,1.8-3.9,6.2-3.9s5.3.7,7.8,2.2l1.7-4.1c-2.5-1.6-6-2.5-9.5-2.5-7.8,0-11.4,3.9-11.4,8.5,0,10.6,16.9,6.5,16.9,12.7s-1.9,3.7-6.3,3.7-7.1-1.3-9.4-3.1l-1.8,4.1c2.4,2,6.8,3.4,11.2,3.4,7.8,0,11.5-3.9,11.5-8.4,0-10.4-16.8-6.5-16.8-12.5Z"/>
      <polygon class="st1" points="356.1 210.5 332 210.5 332 214.9 341.4 214.9 341.4 238.9 346.7 238.9 346.7 214.9 356.1 214.9 356.1 210.5"/>
      <path class="st1" d="M367.4,210.5l-12.8,28.4h5.4l2.8-6.6h14.2l2.8,6.6h5.5l-12.8-28.4h-5.2ZM364.7,228.2l5.3-12.4,5.4,12.4h-10.7Z"/>
      <polygon class="st1" points="384 214.9 393.4 214.9 393.4 238.9 398.7 238.9 398.7 214.9 408.1 214.9 408.1 210.5 384 210.5 384 214.9"/>
      <polygon class="st1" points="417.4 234.5 417.4 226.6 431.1 226.6 431.1 222.3 417.4 222.3 417.4 214.9 432.8 214.9 432.8 210.5 412.1 210.5 412.1 238.9 433.4 238.9 433.4 234.5 417.4 234.5"/>
    </g>
  </g>
</svg>