<?xml version="1.0" encoding="UTF-8"?>
<svg id="Layer_1" xmlns="http://www.w3.org/2000/svg" version="1.1" viewBox="0 0 665.1 374.1">
  <!-- Generator: Adobe Illustrator 29.7.1, SVG Export Plug-In . SVG Version: 2.1.1 Build 8)  -->
  <defs>
    <style>
      .st0 {
        fill: #fff;
      }
    </style>
  </defs>
  <path class="st0" d="M114.6,298.5v-32.1c3-.5,5.7-.7,8.2-.7,7.8,0,11.7,3.3,11.7,9.8s-1.8,7.3-5.3,9l6.4,13.9h-4.8l-5.8-12.7c-.5,0-1.1,0-1.9,0s-2.4-.1-3.8-.4v13h-4.7ZM119.4,269.9v11.9c1.4.2,2.6.4,3.8.4,4.3,0,6.4-2.2,6.4-6.5s-2.1-6.1-6.4-6.1-2.8.1-3.8.4"/>
  <path class="st0" d="M167.9,285.1c0,9.4-3.9,14.1-11.8,14.1s-11.8-4.7-11.8-14.1v-18.7h4.8v19.8c0,5.9,2.4,8.9,7,8.9s7-3,7-8.9v-19.8h4.8v18.7Z"/>
  <path class="st0" d="M195,271.5c-2.3-1.1-4.6-1.7-7-1.7s-3,.4-4.1,1.1c-1,.8-1.6,1.7-1.6,2.9,0,2.1,1.4,3.7,4.2,4.8,4.2,1.5,7.2,3.2,8.9,4.9s2.6,3.8,2.6,6.3-1.2,5.4-3.5,7.2c-1.9,1.4-4.3,2.1-7.1,2.1s-6.8-1.1-10.5-3.4l2-2.9c2.3,1.4,4.9,2.1,7.9,2.1s6.2-1.7,6.2-5.2-1.7-4.7-5.2-5.8c-3.7-1.3-6.3-2.6-7.9-4.2-1.6-1.5-2.4-3.4-2.4-5.5s1-4.6,3-6.2c1.8-1.4,4.2-2.1,7.2-2.1s6.4,1,9.2,2.9l-2,2.9Z"/>
  <path class="st0" d="M216.2,266.3h4.5l11.6,32.1h-4.8l-2.4-7.3h-13.1l-2.5,7.3h-4.8l11.6-32.1h0ZM218.4,272l-5.2,15.3h10.5l-5.2-15.3h0Z"/>
  <path class="st0" d="M240.1,298.5v-32.2h19.6v3.9h-14.9v9.6h12.5v3.9h-12.5v14.7h-4.7Z"/>
  <path class="st0" d="M275.1,266.3h4.5l11.6,32.1h-4.8l-2.4-7.3h-13.1l-2.5,7.3h-4.8l11.6-32.1h0ZM277.4,272l-5.2,15.3h10.5l-5.2-15.3h0Z"/>
  <path class="st0" d="M304.1,298.5h-4.7v-32.2h4.7v13.5h15.5v-13.5h4.8v32.2h-4.8v-14.7h-15.5v14.7Z"/>
  <path class="st0" d="M367.6,212.7l1.7,31.4c14-3.2,26.4-7.8,37-13.9,19.9-11.3,33.4-28.6,40.6-52,1.7-5.8,2.6-11.9,2.6-18.4s-1.7-13-5.1-19.7c-3.4-6.7-7.8-11.9-13-15.6-2.1-1.5-4-2.2-5.9-2.2-5.3,0-11.4,7.3-18.1,21.5-2.8,5.7-5.1,10.5-7.1,14.4-2.1,3.9-3.1,7.7-3.1,11.4s1.3,6.2,3.9,7.4c2.6,1.2,4.9,1.8,7.1,1.8s4.8-.5,8-1.4c3.1-1,5.5-2.1,7.1-3.5,1.5-1.4,2.5-2.1,2.9-2.1,1.2,0,2.7,2.6,4.5,7.8l3.2,9.6c-8.1,7.3-21.8,13.3-41.1,18-9.6,2.4-17.9,4.3-25.1,5.6Z"/>
  <path class="st0" d="M555.3,227.5h-.1c-.8.2-1.3.8-1.5,1.9-2.4,9.8-7.2,18.3-14.3,25.2-7.1,7-15.4,13.3-24.7,18.9-9.3,5.6-18.9,11.1-28.8,16.3-23.2,12.1-34.4,20.2-33.7,24.2.7,4,14.8,3.8,42.2-.5l2.4-.5c23.4-4.3,39.7-14.9,49-31.6,3.2-5.6,5.8-13.5,7.8-23.7,2-10.2,3-19.9,3.2-29-.3-.9-.8-1.4-1.5-1.3"/>
  <path class="st0" d="M331.4,214.4c-7.3-1.1-13.7-3.3-19.2-6.5-3-1.8-5.3-4.4-6.6-7.7-5.6-14.1-6-43.4-6-43.4,0,0,.5-18.2-2.8-31.1-.7-2.6-1.8-5-3.6-7-4.1-4.4-9.4-5-13.9-4.3-4.9.7-9.4,3.1-13.1,6.5-.3.2-.5.5-.8.8-2.4,2.3-6.1,7-10.9,14.1-4.9,7.1-9.4,14.7-13.5,23.1-4.1,8.3-6.8,15-8,20.1-1.2,5.1-1.8,9.2-1.8,12.2s1.2,5.7,3.6,8c5.3,4.9,10.9,7.4,17,7.4s4.5-.3,6.8-1c8.5-2.4,15.6-6.9,21.2-13.2l.9,12.8c2.3,14.4,10.1,36.4,36.3,42.4,4.6,1,9.6,1.5,14.9,1.5h1.5l-1.9-34.4h0ZM275.8,171.7c-2.9.8-5.7,1.2-8.4,1.2-9.2,0-15.3-3-18.2-9.1-.8-1.3-1.2-2.6-1.2-3.8s.5-2.4,1.4-3.7c5.5-7,10.2-10.6,14.1-10.6,7.1,0,11.1,3.8,12,11.3.5,3.4.6,6.2.6,8.6s-.1,4.4-.4,6.1"/>
  <path class="st0" d="M456.4,278.3c23.6-8.8,40.5-20.4,50.6-34.6,10.1-14.3,15.1-24.7,15.1-31.4s-1.6-7.6-4.7-11.8c-3.1-4.2-7.3-6.3-12.6-6.3s-3.5.2-5.4.5c-8.3,1.7-14.5,4.5-18.6,8.3-16,15.7-32,33-47.7,51.9-4.9,1.1-10.4,1.9-16.5,2.5l-.3-.3c5.3-12,8-18.9,8-20.8s-.1-2.9-.4-2.9-.6.3-1,.9c-2.3,5.8-6.1,10.1-11.2,13.1-6.9,3.9-23.8,6.9-50.7,9.2l-8.1-146.7-16.7,31,8.5,151c7.7-.7,17.1-2,28.3-4.1,11.1-2,19.8-4.3,25.8-6.8-.3.8-.4,1.5-.4,2.2,0,3.1,4,4.6,12.1,4.6s23.3-3.2,45.7-9.5h.1c0-.1,0,0,0,0ZM458.3,238.6c4.8-4.9,9.3-8.6,13.6-10.9,4.2-2.3,7.4-3.5,9.4-3.5,7.3,0,12.1,2.4,14.6,7.1.9,1.8,1.3,3.2,1.3,4.4s-.5,2.1-1.7,2.6c-7.6,3.8-15.8,6.7-24.5,8.9-8.7,2.2-17.8,4.2-27.1,6,4.8-4.9,9.5-9.8,14.4-14.7"/>
  <path class="st0" d="M247.3,105.4c8.5-1.5,16.9-3.1,25.3-4.7s17-3.2,25.5-4.7l15.9-31.6c-15.5,3-32.5,6.2-51,9.4l-15.8,31.5h0Z"/>
  <path class="st0" d="M383.3,82.9l18.6,17.4c3.6-4.5,7.3-9,10.9-13.5,3.6-4.5,7.3-9.1,10.9-13.7l-18.6-17.4-21.8,27.1h0Z"/>
  <path class="st0" d="M557.7,210.9c-.7-.6-1.5-1.2-2.4-1.6.3-.7.6-1.7.8-3,.2-1.4.3-2.8.3-4.1s-.4-3.4-1.1-4.9c-.7-1.5-1.9-2.2-3.4-2.2s-1.8.4-3,1.1c-1.2.7-2.4,1.7-3.5,3-1.1,1.3-2.1,2.7-2.9,4.3s-1.2,3.2-1.2,4.9.3,1.9.8,2.4c.5.5,1.4.9,2.5,1.3.7.2,1.5.5,2.6.8,1,.3,1.8.6,2.1.8-1.3,2.1-2.9,4.2-5.1,6.2-2.1,2-4.2,3.8-6.3,5.3l-7.4,5.5.5.8c.4,0,1-.1,1.8-.5s1.6-.6,2.5-1c.9-.4,1.8-.8,2.7-1.3.9-.5,1.6-.8,2.1-1.1,1.2-.7,2.4-1.6,3.7-2.6,1.3-1,2.5-2,3.6-3.1,1.2-1.1,2.2-2.2,3.1-3.3.9-1.1,1.6-2.1,2-3,.6.3,1.3.7,1.9,1.1.7.5,1.4,1,2,1.5.7-1.1,1.3-2.1,1.5-2.9.3-.8.5-1.6.8-2.4-.1-.5-.5-1.1-1.2-1.8M552,206.6c0,.4-.1.8-.3,1.3-.7-.5-1.4-.8-2.1-1-.8-.2-1.5-.5-2.2-.6-.7-.2-1.3-.4-1.8-.6s-.8-.6-.9-1c.1-.5.6-1.3,1.5-2.1.9-.9,2-1.4,3.5-1.4s1,.4,1.5,1.1c.5.8.8,1.6.8,2.6s0,1.3,0,1.7Z"/>
</svg>