<?xml version="1.0" encoding="UTF-8"?>
<svg id="Layer_1" xmlns="http://www.w3.org/2000/svg" version="1.1" viewBox="0 0 665.1 374.1">
  <!-- Generator: Adobe Illustrator 29.7.1, SVG Export Plug-In . SVG Version: 2.1.1 Build 8)  -->
  <defs>
    <style>
      .st0 {
        fill: #fff;
      }
    </style>
  </defs>
  <g>
    <polygon class="st0" points="176.5 226.5 274.6 157.4 274.6 285.3 176.5 226.5"/>
    <path class="st0" d="M320.6,272.9c5.9-1.4,5.5-9.7-.8-10.4-2.6-.3-5.8.2-8.5,0v18.5h3.1s.3-.3.3-.3v-7.6c.8,0,1.8-.3,2.4.3l4.1,7.7h4.1l-4.7-8.1ZM319.2,270.3h-4.4v-5h4c1.1,0,2.4,1.1,2.5,2.3,0,1.2-.8,2.7-2.1,2.7Z"/>
    <path class="st0" d="M333.1,268.4c-7.7,2.3-5.2,14.9,4.3,12.6.6-.1,3.1-1.5,3.2-2.1,0-.3-1.8-1.7-2.1-1.8-.2,0-1.3,1.1-2,1.4-2.1.8-4.7-.2-4.7-2.7h9.5c.4-5.1-2.8-9-8.2-7.4ZM331.8,273.5c0-3.9,6.4-4.1,6.2,0h-6.2Z"/>
    <path class="st0" d="M355.1,269.4c-2.1-2.1-7.5-1.6-9.4.8.4.3,1.1,1.4,1.5,1.5.1,0,1.6-.9,2.1-1,2.1-.6,4.4,0,4.2,2.6h-4c-.3,0-2.4.7-2.8.9-1.9,1.1-2.5,3.7-1.2,5.4,1.7,2.3,6.2,2.3,7.8-.1.3.2,0,1.4.1,1.5.1,0,2.4,0,2.8,0v-9.6c0-.3-.9-1.8-1.2-2ZM353,277.6c-.8,1.7-4.8,1.8-4.9-.2-.2-2.2,3.7-2.1,5.2-2,0,.7,0,1.5-.3,2.2Z"/>
    <rect class="st0" x="361.5" y="261.2" width="3" height="19.8"/>
    <path class="st0" d="M374.4,89.3c4.7-4.1,10.8,2.9,6.2,6.9-4.7,4-10.4-3.1-6.2-6.9Z"/>
    <path class="st0" d="M386,179.5l-20.7,54.5c-.4.7-1.9.2-2.7.4l-13.9-33.6-12.6,33.3c-.4.4-2.6.1-3.3.2l-21.5-54.8h9.2l15.9,41.1,14.6-36.8,14.4,37,15.9-41.3h4.5Z"/>
    <path class="st0" d="M388.3,273c-.6-2.8-2.4-4.8-5.4-4.9-9.6-.4-9.8,14.2.8,13.1,1,0,3.8-1.3,4-2.3,0-.4-1.8-1.8-2-1.7-.1,0-.8.8-1.1.9-2.5,1.4-5.1.6-5.6-2.3h9.4c.6,0,.1-2.4,0-2.8ZM378.9,273.5c.4-4,6.2-4.1,6.5,0h-6.5Z"/>
    <path class="st0" d="M402.1,276.2c1.2,5.7-7.4,6.4-10.3,3.2.5-.3,1.4-1.7,1.9-1.8.6-.2,1.5,1.1,2.3,1.2,1.3.2,3.4,0,2.9-1.8-.5-1.6-5.8-.9-6.5-3.8-.7-2.9,1.2-4.8,3.9-5.1,2-.2,4.1.1,5.4,1.8l-2,2c-.7-1.7-4.8-1.8-4.2.3.5,1.6,5.9.8,6.6,4Z"/>
    <path class="st0" d="M410.5,271.1v6.6c0,1.2,2.6,1,3.4.8-.1,1,.5,2.5-.8,2.7-.8.2-3.1.1-3.9-.1-.9-.3-2-1.6-2-2.5v-7.4h-2.6v-2.6l2.6-.2v-3.4h3.2v3.4c.6.4,3.1,0,3.2,0,.4.3.3,2.7-.1,2.7h-3.1Z"/>
    <path class="st0" d="M424.1,228.6c-1-8.8.7-19.1,0-27.9-.4-4.4-2.8-7.2-6.9-8.6-8.7-2.7-23.3-.2-24.7,10.6h7.4c.5-.7.5-1.8.8-2.6,1.6-4.4,5.7-7,10.5-5.8,5.2,1.3,4.5,8.3,4.6,12.4-9.4,2.8-26.4,6.2-24.9,19.4.5,4.6,4.4,8.2,8.9,8.7,6.8.7,11.1-2.3,16-6.4,0,1.7.9,3.3,2.1,4.4.2.2,1.5,1.2,1.6,1.2h8.3c-1.9-1.5-3.4-2.8-3.6-5.3ZM415.7,225.3c-3.8,2.5-9,6.5-13.5,3.1-2.6-2-3.9-5.7-2.5-8.8,2.1-4.9,11.2-8.6,16.1-10v15.7Z"/>
    <path class="st0" d="M427.7,269.9c-2-2.7-7.8-2.3-9.9.2l1.8,1.6c1.1-1.4,4.6-1.8,5.7-.3.2.3.7,1.8.1,1.8h-3.9c-1.1,0-3.4,1.2-4,2.2-2.4,4.2,2.7,7,6.4,5.3l1.8-1.3c0,.3,0,1.4,0,1.5.1,0,2.4,0,2.8,0v-8.9c0-.3-.6-1.8-.9-2.1ZM421.4,278.8c-.7-.1-1.3-.9-1.2-1.6,0-1.8,4.1-2,5.4-1.8.3,2.6-1.6,3.9-4.1,3.4Z"/>
    <path class="st0" d="M441.3,278.2v2.7c-1.6.6-5.1.8-6.1-.9-.1-.2-.6-1.5-.6-1.6v-7.2h-2.6v-2.6l2.6-.2v-3.4h3.2v3.4l3.4.2v2.6h-3.4v6.3c0,1.2,2.6,1.5,3.4.8Z"/>
    <path class="st0" d="M457.4,274c-.8-9.1-13.9-7.4-12.7,2.1.7,5.4,9.1,7,12,2.6-.4-.1-1.9-1.6-2.1-1.6-.2,0-1.5,1.2-2.2,1.4-2.2.7-4.5-.4-4.8-2.7h9.4c.5,0,.3-1.5.3-1.8ZM447.7,273.5c.4-4,6.3-4.1,6.5,0h-6.5Z"/>
    <path class="st0" d="M466.3,193.3l-2.5,6.9c-.3.2-1.3-1-1.6-1.3-3.8-2.6-10-1.5-13.3,1.5-.5.5-2.9,3.5-2.9,4v29.6h-8.4v-40.3c1-.6,6.3-2.9,7.1-2.4.3.2.9,7.3,1.2,8.3,4-6.9,13.3-11.1,20.5-6.2Z"/>
    <path class="st0" d="M478.9,268.1c-1.7-.2-1.9-2.6-.7-2.9,3.1-.9,3.1,3.1.7,2.9Z"/>
    <path class="st0" d="M482.9,268.1c-1.7-.2-1.8-2.6-.6-2.9,3.1-.9,3.1,3.1.6,2.9Z"/>
    <path class="st0" d="M506,285.7c-1.5-.4-1.2-2.6.2-2.9,2.4-.5,2.9,3.6-.2,2.9Z"/>
    <path class="st0" d="M509.9,285.6c-1.3-.4-1.1-2.6.4-2.9,2.7-.6,2.6,3.8-.4,2.9Z"/>
    <path class="st0" d="M508.8,218.2c-2.1,6.9-9.9,10.8-16.9,10.1-8.6-.8-13.4-11.9-12.8-19.6h31.2c0-8.8-6.9-16-15.4-17.4-24.7-3.9-33.5,33.3-10.9,42,11.7,4.5,24-2.8,27.4-14.4l-2.6-.9ZM494,195.5c3.7,1.9,6,5.9,5.8,10l-20.6-.2c.5-7.6,7.2-13.7,14.8-9.8Z"/>
    <path class="st0" d="M508.4,270.5v7.5h-22.2v-3.8c0-1.2-1.1-3-2.1-3.7-5.3-3.5-11,3.5-7.7,8.3.6.9,2.6,2.2,3.6,2.2h31.3v-10.2c0-.5-2.5-.2-3-.3ZM481.2,278c-3.5-.4-3.4-4.8-.8-5.3,2-.4,2.7,1.1,2.9,2.8.2,2.2.3,2.7-2,2.5Z"/>
    <path class="st0" d="M517.2,270.5h3v11.3c0,.3-.7,2-.9,2.3-1.4,2.3-4,2.3-6.4,1.9.1-.5.2-2.9.4-3,.2-.1,2.5.8,3.3-.2,0-.1.5-1.1.5-1.2v-11.1Z"/>
    <path class="st0" d="M522.9,158.2c-5.7.4-6.6-8.3-1.2-9.2,6.5-1.1,7.5,8.7,1.2,9.2Z"/>
    <path class="st0" d="M534.1,158.2c-5.8.3-6.5-8.3-1.2-9.2,6.8-1.2,7.4,8.9,1.2,9.2Z"/>
    <path class="st0" d="M528,107.3v26h-135.1c.3-9.5.9-23.7-10.8-26.7-16.2-4.1-27,12.9-19.8,26.7-12.4-.1-24.9.3-37.3-.2-2.5-.4-5-1.1-6-3.7-.2-.6-.6-2.3-.6-2.8v-12.1h-6.8s-.3.3-.3.3v15.3c0,8.6,8.9,10.5,15.8,10.7h207.9v-33.3h-7.1ZM385.8,133.3h-10.2c-.4,0-2.2-.6-2.7-.8-11.4-4.3-5.6-23.6,7.1-19.1,3.4,1.2,5.8,5.5,5.8,9v10.9Z"/>
    <path class="st0" d="M548.8,265.6c1,1.7-1.2,3.3-2.5,2-1.7-1.7,1.6-3.6,2.5-2Z"/>
    <path class="st0" d="M553.1,266.3c.2,1.6-1.7,2.3-2.7,1.3-2-2,2.4-4,2.7-1.3Z"/>
    <path class="st0" d="M541.7,158.7v-7.3c5,0,9.7-.7,11.1-6.2.4-1.4.3-2.8.5-4.2v-29.4s7.3,0,7.3,0c-.2,8.3.3,16.7,0,25.1-.1,4.3-.4,10.1-2,14.1-3,7-10.1,7.8-16.9,8Z"/>
    <path class="st0" d="M560.8,219.3c-.1-.2-2.4-1.2-2.5-1.1-2.3,7.2-11.4,11.7-18.7,9.7-7.3-2-11.2-11.2-11.2-18.2,0-.3,0-1,.3-1h31.1c-1.4-21-29.9-24-37.5-4.7-3.9,9.9-2,21.3,7.2,27.4,9.9,6.5,22.1,3.2,28.6-6.3.5-.7,3.1-5.3,2.7-5.9ZM537.5,194.4c6.5-.6,11.8,4.8,11.7,11.2l-20.7-.2c0-4.8,3.9-10.5,8.9-11Z"/>
    <path class="st0" d="M593.1,262.3v15.7h-6.7l2-3.2c2.2-4.7-3.2-5.9-6.8-5.1-.7.2-3.8,1.4-4,2-.7,2.2,1.3,4.6,2.8,6-.1,0-.7.3-.8.3h-25.1v-4c0-1.3-1.3-3.2-2.4-3.8-4.9-2.5-10.2,2.9-7.7,7.8h-17.4v-15.7h-3v18.7h56c.8,0,2.7-1.1,3.2-1,.6,0,2.2,1,3.1,1h9.8v-18.7h-3ZM551.6,277.2c-.1,1.2-1.9.8-2.8.6-2.8-.7-2.5-4.7,0-5.2,2.9-.6,3.1,2.4,2.9,4.6ZM583.4,276.5c-.6,0-3.1-3.1-2.9-3.5,1.1-.5,4.4-1.1,5.4-.3,1,.8-1.6,3.8-2.5,3.8Z"/>
    <path class="st0" d="M601.9,118c-2.4-8.2-8.6-11.8-17-11.1-16.6,1.4-21.2,28.1-5.9,32.8,5.6,1.7,11.8,1.1,17-1.4v3.5c0,.4-.5,2.2-.7,2.8-2.8,7.8-14,6.7-20.6,6.8v7.3c10.7,0,23.7,0,27.5-12.2,1.9-6.3,1.6-22.1-.2-28.5ZM595.9,130.6c-.2,1-4.5,2.4-5.6,2.6-4.7.9-11.3.4-13.1-4.8-1.9-5.6,1-13.8,7.4-14.6,7.9-1.1,10.8,4.8,11.2,11.7,0,1.1.2,4.2,0,5.2Z"/>
    <path class="st0" d="M600.4,262.3h3v18.4c0,.5-2.5.3-3,.3v-18.7Z"/>
    <path class="st0" d="M598.1,96.8c0-.3.9-.8,1.1-1.6.4-1.4-.2-3.3-1.7-3.7-1-.2-2.7.2-3.8,0v8.7c0,.4,1.2.4,1.5.3v-3.7c2.1-.9,2.2,3.2,2.8,3.6.3.2,1.5,0,1.5-.3,0-.3-1.4-2.8-1.5-3.5ZM595.3,95.9v-3.2c3.6-.6,3.6,3.8,0,3.2Z"/>
    <path class="st0" d="M595.4,88.2c-4.3.6-7.1,4.9-6.6,9,1,7.1,10.6,9.2,14.5,3.2,3.7-5.9-1-13.1-7.9-12.2ZM597.5,103c-9.6.9-10.5-13.4-1.2-13.9,9-.5,9.9,13.1,1.2,13.9Z"/>
    <path class="st0" d="M603.2,176.2c.5.6,1.6,2.1,1.1,2.8-.8,1.2-4.6,3-5.8,4.2-.6-5-5.6-12.3-11.3-8.6-1.7,1.1-3.4,4.7-3.4,6.7v10.3s.3.3.3.3h10.9v3.7h-11.2v38.3h-8.4v-38.3h-8.6v-3.7h8.6c-.3-5.9.2-11.6,4.2-16.1,6.1-7.1,17.7-7.2,23.5.4Z"/>
    <polygon class="st0" points="274.6 157.4 274.6 285.3 176.5 226.5 274.6 157.4"/>
    <path class="st0" d="M528,107.3v26h-135.1c.3-9.5.9-23.7-10.8-26.7-16.2-4.1-27,12.9-19.8,26.7-12.4-.1-24.9.3-37.3-.2-2.5-.4-5-1.1-6-3.7-.2-.6-.6-2.3-.6-2.8v-12.1h-6.8s-.3.3-.3.3v15.3c0,8.6,8.9,10.5,15.8,10.7h207.9v-33.3h-7.1ZM385.8,133.3h-10.2c-.4,0-2.2-.6-2.7-.8-11.4-4.3-5.6-23.6,7.1-19.1,3.4,1.2,5.8,5.5,5.8,9v10.9Z"/>
    <path class="st0" d="M386,179.5l-20.7,54.5c-.4.7-1.9.2-2.7.4l-13.9-33.6-12.6,33.3c-.4.4-2.6.1-3.3.2l-21.5-54.8h9.2l15.9,41.1,14.6-36.8,14.4,37,15.9-41.3h4.5Z"/>
    <path class="st0" d="M601.9,118c-2.4-8.2-8.6-11.8-17-11.1-16.6,1.4-21.2,28.1-5.9,32.8,5.6,1.7,11.8,1.1,17-1.4v3.5c0,.4-.5,2.2-.7,2.8-2.8,7.8-14,6.7-20.6,6.8v7.3c10.7,0,23.7,0,27.5-12.2,1.9-6.3,1.6-22.1-.2-28.5ZM595.9,130.6c-.2,1-4.5,2.4-5.6,2.6-4.7.9-11.3.4-13.1-4.8-1.9-5.6,1-13.8,7.4-14.6,7.9-1.1,10.8,4.8,11.2,11.7,0,1.1.2,4.2,0,5.2Z"/>
    <path class="st0" d="M424.1,228.6c-1-8.8.7-19.1,0-27.9-.4-4.4-2.8-7.2-6.9-8.6-8.7-2.7-23.3-.2-24.7,10.6h7.4c.5-.7.5-1.8.8-2.6,1.6-4.4,5.7-7,10.5-5.8,5.2,1.3,4.5,8.3,4.6,12.4-9.4,2.8-26.4,6.2-24.9,19.4.5,4.6,4.4,8.2,8.9,8.7,6.8.7,11.1-2.3,16-6.4,0,1.7.9,3.3,2.1,4.4.2.2,1.5,1.2,1.6,1.2h8.3c-1.9-1.5-3.4-2.8-3.6-5.3ZM415.7,225.3c-3.8,2.5-9,6.5-13.5,3.1-2.6-2-3.9-5.7-2.5-8.8,2.1-4.9,11.2-8.6,16.1-10v15.7Z"/>
    <path class="st0" d="M508.8,218.2c-2.1,6.9-9.9,10.8-16.9,10.1-8.6-.8-13.4-11.9-12.8-19.6h31.2c0-8.8-6.9-16-15.4-17.4-24.7-3.9-33.5,33.3-10.9,42,11.7,4.5,24-2.8,27.4-14.4l-2.6-.9ZM494,195.5c3.7,1.9,6,5.9,5.8,10l-20.6-.2c.5-7.6,7.2-13.7,14.8-9.8Z"/>
    <path class="st0" d="M560.8,219.3c-.1-.2-2.4-1.2-2.5-1.1-2.3,7.2-11.4,11.7-18.7,9.7-7.3-2-11.2-11.2-11.2-18.2,0-.3,0-1,.3-1h31.1c-1.4-21-29.9-24-37.5-4.7-3.9,9.9-2,21.3,7.2,27.4,9.9,6.5,22.1,3.2,28.6-6.3.5-.7,3.1-5.3,2.7-5.9ZM537.5,194.4c6.5-.6,11.8,4.8,11.7,11.2l-20.7-.2c0-4.8,3.9-10.5,8.9-11Z"/>
    <path class="st0" d="M604.3,179c-.8,1.2-4.6,3-5.8,4.2-.6-5-5.6-12.3-11.3-8.6-1.7,1.1-3.4,4.7-3.4,6.7v10.3s.3.3.3.3h10.9v3.7h-11.2v38.3h-8.4v-38.3h-8.6v-3.7h8.6c-.3-5.9.2-11.6,4.2-16.1,6.1-7.1,17.7-7.2,23.5.4.5.6,1.6,2.1,1.1,2.8Z"/>
    <path class="st0" d="M466.3,193.3l-2.5,6.9c-.3.2-1.3-1-1.6-1.3-3.8-2.6-10-1.5-13.3,1.5-.5.5-2.9,3.5-2.9,4v29.6h-8.4v-40.3c1-.6,6.3-2.9,7.1-2.4.3.2.9,7.3,1.2,8.3,4-6.9,13.3-11.1,20.5-6.2Z"/>
    <path class="st0" d="M593.1,262.3v15.7h-6.7l2-3.2c2.2-4.7-3.2-5.9-6.8-5.1-.7.2-3.8,1.4-4,2-.7,2.2,1.3,4.6,2.8,6-.1,0-.7.3-.8.3h-25.1v-4c0-1.3-1.3-3.2-2.4-3.8-4.9-2.5-10.2,2.9-7.7,7.8h-17.4v-15.7h-3v18.7h56c.8,0,2.7-1.1,3.2-1,.6,0,2.2,1,3.1,1h9.8v-18.7h-3ZM551.6,277.2c-.1,1.2-1.9.8-2.8.6-2.8-.7-2.5-4.7,0-5.2,2.9-.6,3.1,2.4,2.9,4.6ZM583.4,276.5c-.6,0-3.1-3.1-2.9-3.5,1.1-.5,4.4-1.1,5.4-.3,1,.8-1.6,3.8-2.5,3.8Z"/>
    <path class="st0" d="M560.7,136.6c-.1,4.3-.4,10.1-2,14.1-3,7-10.1,7.8-16.9,8v-7.3c5,0,9.7-.7,11.1-6.2.4-1.4.3-2.8.5-4.2v-29.4s7.3,0,7.3,0c-.2,8.3.3,16.7,0,25.1Z"/>
    <path class="st0" d="M508.4,270.5v7.5h-22.2v-3.8c0-1.2-1.1-3-2.1-3.7-5.3-3.5-11,3.5-7.7,8.3.6.9,2.6,2.2,3.6,2.2h31.3v-10.2c0-.5-2.5-.2-3-.3ZM481.2,278c-3.5-.4-3.4-4.8-.8-5.3,2-.4,2.7,1.1,2.9,2.8.2,2.2.3,2.7-2,2.5Z"/>
    <path class="st0" d="M320.6,272.9c5.9-1.4,5.5-9.7-.8-10.4-2.6-.3-5.8.2-8.5,0v18.5h3.1s.3-.3.3-.3v-7.6c.8,0,1.8-.3,2.4.3l4.1,7.7h4.1l-4.7-8.1ZM319.2,270.3h-4.4v-5h4c1.1,0,2.4,1.1,2.5,2.3,0,1.2-.8,2.7-2.1,2.7Z"/>
    <path class="st0" d="M333.1,268.4c-7.7,2.3-5.2,14.9,4.3,12.6.6-.1,3.1-1.5,3.2-2.1,0-.3-1.8-1.7-2.1-1.8-.2,0-1.3,1.1-2,1.4-2.1.8-4.7-.2-4.7-2.7h9.5c.4-5.1-2.8-9-8.2-7.4ZM331.8,273.5c0-3.9,6.4-4.1,6.2,0h-6.2Z"/>
    <path class="st0" d="M388.3,273c-.6-2.8-2.4-4.8-5.4-4.9-9.6-.4-9.8,14.2.8,13.1,1,0,3.8-1.3,4-2.3,0-.4-1.8-1.8-2-1.7-.1,0-.8.8-1.1.9-2.5,1.4-5.1.6-5.6-2.3h9.4c.6,0,.1-2.4,0-2.8ZM378.9,273.5c.4-4,6.2-4.1,6.5,0h-6.5Z"/>
    <path class="st0" d="M457.4,274c-.8-9.1-13.9-7.4-12.7,2.1.7,5.4,9.1,7,12,2.6-.4-.1-1.9-1.6-2.1-1.6-.2,0-1.5,1.2-2.2,1.4-2.2.7-4.5-.4-4.8-2.7h9.4c.5,0,.3-1.5.3-1.8ZM447.7,273.5c.4-4,6.3-4.1,6.5,0h-6.5Z"/>
    <path class="st0" d="M427.7,269.9c-2-2.7-7.8-2.3-9.9.2l1.8,1.6c1.1-1.4,4.6-1.8,5.7-.3.2.3.7,1.8.1,1.8h-3.9c-1.1,0-3.4,1.2-4,2.2-2.4,4.2,2.7,7,6.4,5.3l1.8-1.3c0,.3,0,1.4,0,1.5.1,0,2.4,0,2.8,0v-8.9c0-.3-.6-1.8-.9-2.1ZM421.4,278.8c-.7-.1-1.3-.9-1.2-1.6,0-1.8,4.1-2,5.4-1.8.3,2.6-1.6,3.9-4.1,3.4Z"/>
    <path class="st0" d="M355.1,269.4c-2.1-2.1-7.5-1.6-9.4.8.4.3,1.1,1.4,1.5,1.5.1,0,1.6-.9,2.1-1,2.1-.6,4.4,0,4.2,2.6h-4c-.3,0-2.4.7-2.8.9-1.9,1.1-2.5,3.7-1.2,5.4,1.7,2.3,6.2,2.3,7.8-.1.3.2,0,1.4.1,1.5.1,0,2.4,0,2.8,0v-9.6c0-.3-.9-1.8-1.2-2ZM353,277.6c-.8,1.7-4.8,1.8-4.9-.2-.2-2.2,3.7-2.1,5.2-2,0,.7,0,1.5-.3,2.2Z"/>
    <path class="st0" d="M391.8,279.4c.5-.3,1.4-1.7,1.9-1.8.6-.2,1.5,1.1,2.3,1.2,1.3.2,3.4,0,2.9-1.8-.5-1.6-5.8-.9-6.5-3.8-.7-2.9,1.2-4.8,3.9-5.1,2-.2,4.1.1,5.4,1.8l-2,2c-.7-1.7-4.8-1.8-4.2.3.5,1.6,5.9.8,6.6,4,1.2,5.7-7.4,6.4-10.3,3.2Z"/>
    <path class="st0" d="M441.3,280.9c-1.6.6-5.1.8-6.1-.9-.1-.2-.6-1.5-.6-1.6v-7.2h-2.6v-2.6l2.6-.2v-3.4h3.2v3.4l3.4.2v2.6h-3.4v6.3c0,1.2,2.6,1.5,3.4.8v2.7Z"/>
    <path class="st0" d="M413.1,281.2c-.8.2-3.1.1-3.9-.1-.9-.3-2-1.6-2-2.5v-7.4h-2.6v-2.6l2.6-.2v-3.4h3.2v3.4c.6.4,3.1,0,3.2,0,.4.3.3,2.7-.1,2.7h-3.1v6.6c0,1.2,2.6,1,3.4.8-.1,1,.5,2.5-.8,2.7Z"/>
    <path class="st0" d="M534.1,158.2c-5.8.3-6.5-8.3-1.2-9.2,6.8-1.2,7.4,8.9,1.2,9.2Z"/>
    <path class="st0" d="M380.6,96.2c-4.7,4-10.4-3.1-6.2-6.9,4.7-4.1,10.8,2.9,6.2,6.9Z"/>
    <path class="st0" d="M522.9,158.2c-5.7.4-6.6-8.3-1.2-9.2,6.5-1.1,7.5,8.7,1.2,9.2Z"/>
    <rect class="st0" x="361.5" y="261.2" width="3" height="19.8"/>
    <path class="st0" d="M603.5,262.3v18.4c0,.5-2.5.3-3,.3v-18.7h3Z"/>
    <path class="st0" d="M520.2,270.5v11.3c0,.3-.7,2-.9,2.3-1.4,2.3-4,2.3-6.4,1.9.1-.5.2-2.9.4-3,.2-.1,2.5.8,3.3-.2,0-.1.5-1.1.5-1.2v-11.1h3Z"/>
    <path class="st0" d="M598.1,96.8c0-.3.9-.8,1.1-1.6.4-1.4-.2-3.3-1.7-3.7-1-.2-2.7.2-3.8,0v8.7c0,.4,1.2.4,1.5.3v-3.7c2.1-.9,2.2,3.2,2.8,3.6.3.2,1.5,0,1.5-.3,0-.3-1.4-2.8-1.5-3.5ZM595.3,95.9v-3.2c3.6-.6,3.6,3.8,0,3.2Z"/>
    <path class="st0" d="M595.4,88.2c-4.3.6-7.1,4.9-6.6,9,1,7.1,10.6,9.2,14.5,3.2,3.7-5.9-1-13.1-7.9-12.2ZM597.5,103c-9.6.9-10.5-13.4-1.2-13.9,9-.5,9.9,13.1,1.2,13.9Z"/>
    <path class="st0" d="M478.9,268.1c-1.7-.2-1.9-2.6-.7-2.9,3.1-.9,3.1,3.1.7,2.9Z"/>
    <path class="st0" d="M506,285.7c-1.5-.4-1.2-2.6.2-2.9,2.4-.5,2.9,3.6-.2,2.9Z"/>
    <path class="st0" d="M482.9,268.1c-1.7-.2-1.8-2.6-.6-2.9,3.1-.9,3.1,3.1.6,2.9Z"/>
    <path class="st0" d="M509.9,285.6c-1.3-.4-1.1-2.6.4-2.9,2.7-.6,2.6,3.8-.4,2.9Z"/>
    <path class="st0" d="M546.3,267.6c-1.7-1.7,1.6-3.6,2.5-2,1,1.7-1.2,3.3-2.5,2Z"/>
    <path class="st0" d="M553.1,266.3c.2,1.6-1.7,2.3-2.7,1.3-2-2,2.4-4,2.7-1.3Z"/>
    <path class="st0" d="M598.1,96.8c0-.3.9-.8,1.1-1.6.4-1.4-.2-3.3-1.7-3.7-1-.2-2.7.2-3.8,0v8.7c0,.4,1.2.4,1.5.3v-3.7c2.1-.9,2.2,3.2,2.8,3.6.3.2,1.5,0,1.5-.3,0-.3-1.4-2.8-1.5-3.5ZM595.3,95.9v-3.2c3.6-.6,3.6,3.8,0,3.2Z"/>
    <path class="st0" d="M598.1,96.8c0-.3.9-.8,1.1-1.6.4-1.4-.2-3.3-1.7-3.7-1-.2-2.7.2-3.8,0v8.7c0,.4,1.2.4,1.5.3v-3.7c2.1-.9,2.2,3.2,2.8,3.6.3.2,1.5,0,1.5-.3,0-.3-1.4-2.8-1.5-3.5ZM595.3,95.9v-3.2c3.6-.6,3.6,3.8,0,3.2Z"/>
  </g>
  <path class="st0" d="M274.6,92.1c0,.2,0,.4,0,.6,0,.7-.1,1.4-.3,2.1,0,.2,0,.4-.1.6L60.8,262.5l-.5-.2c-.2-4.1-.1-8.5,0-12.6,0-.2,0-.5.1-.7,64.8-53.5,129.5-107,194.3-160.6l1.1-.3c6.2,0,12.5,0,18.7,0,.1,1.3.1,2.6,0,3.9Z"/>
  <path class="st0" d="M249.7,88.6c-63,53.2-125.9,106.4-188.9,159.7l-.5-.2c-.2-4.6-.1-9.6,0-14.3,0-.2,0-.6.2-.8,53-48.1,106-96.3,159-144.5l1.1-.4c9.7,0,19.4,0,29,0v.5Z"/>
  <path class="st0" d="M215.1,88.6c-51.4,47.8-102.9,95.5-154.3,143.3h-.5c-.1-4.9-.1-9.9,0-14.6,5.4-5.9,10.8-11.7,16.3-17.5,30.4-31.6,60.8-63.2,91.3-94.7,2.8-2.9,5.6-5.7,8.4-8.5,2.8-2.8,5.7-5.6,8.5-8.4h30.1v.5Z"/>
  <polygon class="st0" points="179 88.1 60.3 214.6 60.3 195.3 154.1 88.1 179 88.1"/>
  <path class="st0" d="M274.6,134.4L60.5,285.9c-.3-.2-.2-.8-.2-1.2,0-1.3-.2-3.3,0-4.5,0-.3,0-.6.3-.8l213.8-157.6v12.5Z"/>
  <polygon class="st0" points="147.9 88.1 60.3 192.6 60.3 168 126.8 88.1 147.9 88.1"/>
  <path class="st0" d="M121.2,88.1l-60.9,77.2v-26.6c13.5-16.9,27.1-33.6,40.4-50.6h20.4Z"/>
  <path class="st0" d="M95.4,88.1l-35.1,47.9v-29.8l15.1-18.2c6.7,0,13.3,0,20,0Z"/>
  <path class="st0" d="M70.8,88.1l-10.5,15v-15c3.5,0,7,0,10.5,0Z"/>
  <polygon class="st0" points="274.6 99.5 274.6 118.1 60.3 278.9 60.3 263.7 274.6 99.5"/>
</svg>